<?xml version="1.0" encoding="utf-8"?>
<!-- Generator: Adobe Illustrator 21.0.0, SVG Export Plug-In . SVG Version: 6.00 Build 0)  -->
<svg version="1.1" id="Logotypy" xmlns="http://www.w3.org/2000/svg" xmlns:xlink="http://www.w3.org/1999/xlink" x="0px" y="0px"
	 viewBox="0 0 841.9 595.3" style="enable-background:new 0 0 841.9 595.3;" xml:space="preserve">
<style type="text/css">
	.st0{fill:#EE740D;}
	.st1{fill:#3C3C3B;}
</style>
<g>
	<g>
		<path class="st0" d="M333.8,123c-0.1-0.1-0.2-0.2-0.3-0.2c-0.1-0.1-0.2-0.1-0.3-0.1c-0.1,0-0.1,0-0.2,0.1
			c-0.1,0.1-0.1,0.1-0.2,0.2c-0.2,0.3-0.4,0.5-0.5,0.8c-0.2,0.3-0.3,0.5-0.5,0.8c-0.2,0.4-0.4,0.7-0.5,0.9c-0.1,0.2-0.3,0.4-0.3,0.6
			c-0.1,0.2-0.2,0.3-0.2,0.5c-0.1,0.1-0.1,0.2-0.2,0.3c-0.1,0.1-0.1,0.2-0.2,0.2c-0.1,0-0.1,0.1-0.1,0.1c0,0,0,0.1,0,0.2
			c0,0,0,0.1,0,0.1c0,0.1-0.1,0.2-0.2,0.4c-0.1,0.2-0.2,0.4-0.4,0.7c-0.2,0.4-0.4,0.8-0.5,1c-0.1,0.2-0.2,0.4-0.1,0.4
			c0,0.1,0.1,0.2,0.2,0.2l0.2,0.1l0.2-0.3c0.1-0.1,0.2-0.3,0.3-0.5c0.1-0.2,0.2-0.4,0.2-0.5c0.1-0.2,0.1-0.3,0.1-0.3
			c0.1-0.1,0.1-0.2,0.2-0.2c0,0,0-0.1,0.1-0.2c0.1-0.1,0.1-0.2,0.2-0.3c0.1-0.1,0.2-0.2,0.2-0.3c0.1-0.1,0.2-0.1,0.2-0.1
			c0.1,0,0.2,0,0.4-0.1c0.2,0,0.4,0,0.6-0.1c0.2,0,0.4,0,0.6-0.1c0.2,0,0.3,0,0.4,0l0.1,0l-0.1,1.7c0,0.3,0,0.5,0,0.6
			c0,0.1,0,0.2,0,0.2c0,0,0,0.1,0,0.1c0,0.1,0.1,0.1,0.2,0.2c0.1,0,0.2,0.1,0.3,0.1c0.1,0,0.2,0,0.2-0.1c0,0,0-0.1,0-0.1
			c0-0.1,0-0.1,0-0.2c0-0.3,0-0.6,0-1c0-0.4,0.1-0.8,0.1-1.2c0-0.4,0.1-0.8,0.1-1.2c0-0.4,0.1-0.7,0.1-1c0-0.3,0.1-0.6,0.1-0.8
			c0-0.3,0-0.5,0-0.7c0-0.2,0-0.3,0-0.4C334,123.2,333.9,123.1,333.8,123z M333.4,124c0,0.1,0,0.3,0,0.5c0,0.2,0,0.4-0.1,0.7
			c0,0.2,0,0.5-0.1,0.7c0,0.2,0,0.4-0.1,0.5c0,0.1,0,0.2,0,0.2c0,0-0.1,0-0.1-0.1c0,0-0.1,0-0.1,0c-0.1,0-0.1,0-0.3,0
			c-0.1,0-0.3,0.1-0.6,0.1c-0.1,0-0.2,0-0.3,0c-0.1,0-0.2,0-0.4,0.1c0,0,0-0.1,0-0.2c0-0.1,0.1-0.2,0.2-0.4c0.1-0.1,0.1-0.3,0.2-0.4
			c0.1-0.1,0.1-0.2,0.1-0.2c0,0,0.1-0.1,0.1-0.2c0.1-0.1,0.1-0.2,0.2-0.4c0.1-0.3,0.3-0.6,0.5-0.8c0.2-0.3,0.3-0.5,0.5-0.6
			c0.1-0.2,0.2-0.2,0.3-0.2C333.4,123.7,333.4,123.9,333.4,124z"/>
		<path class="st0" d="M337.1,123.7c0-0.1,0-0.2,0-0.2c0-0.1,0-0.2,0-0.2c0-0.1,0-0.1-0.1-0.2c-0.1-0.1-0.1-0.1-0.2-0.2
			c0,0-0.1,0-0.1,0c0,0-0.1,0-0.1,0c-0.1,0-0.1,0-0.1,0c0,0,0,0.1,0,0.1c0,0,0,0.1-0.1,0.3c-0.1,0.2-0.1,0.4-0.2,0.6
			c-0.1,0.2-0.2,0.5-0.3,0.7c-0.1,0.2-0.2,0.5-0.3,0.7c-0.1,0.2-0.1,0.3-0.2,0.4c0,0,0,0.1,0,0.1c0,0,0,0.1,0,0.1c0,0,0,0.1,0,0.1
			c0,0,0,0.1,0,0.1c0,0-0.1,0.1-0.1,0.1c0,0.1,0,0.1,0,0.2c0,0,0,0.1,0,0.1c0,0,0,0.1-0.1,0.1c0,0,0,0.1-0.1,0.2
			c0,0.1-0.1,0.2-0.1,0.4c0,0.1-0.1,0.3-0.1,0.4c0,0.1-0.1,0.2-0.1,0.3c0,0,0,0.1,0,0.2c0,0.1,0,0.2-0.1,0.2
			c-0.1,0.3-0.1,0.5-0.1,0.7c0,0.2,0.1,0.3,0.1,0.4c0.1,0.1,0.2,0.1,0.3,0.1c0.1,0,0.1-0.1,0.1-0.1c0-0.1,0-0.2,0-0.3
			c0-0.2,0-0.5,0.1-0.8c0.1-0.3,0.2-0.7,0.3-1.1c0.1-0.3,0.2-0.5,0.2-0.6c0-0.1,0-0.1,0.1-0.1c0,0,0-0.1,0-0.1c0,0,0-0.1,0-0.1
			c0,0,0-0.1,0.1-0.2c0-0.1,0.1-0.2,0.1-0.3c0.1-0.1,0.1-0.2,0.2-0.3c0-0.1,0.1-0.2,0.1-0.2c0-0.1,0.1-0.2,0.1-0.2
			c0-0.1,0-0.1,0-0.1c0,0,0-0.1,0.1-0.2s0.1-0.3,0.2-0.4c0.1-0.3,0.2-0.5,0.3-0.6C337.1,123.9,337.1,123.8,337.1,123.7z"/>
		<path class="st0" d="M341.4,126.1c-0.1,0-0.2,0-0.3,0.1c-0.1,0.1-0.2,0.2-0.2,0.3c-0.1,0.2-0.1,0.3-0.2,0.4
			c-0.1,0.1-0.1,0.2-0.1,0.2c0,0.1,0,0.1-0.1,0.2c0,0.1-0.1,0.2-0.1,0.3c0,0.1-0.1,0.1-0.1,0.2c0,0.1-0.1,0.2-0.2,0.3
			c-0.1,0.1-0.2,0.2-0.2,0.3c-0.2,0.2-0.3,0.4-0.4,0.6c-0.1,0.2-0.2,0.2-0.2,0.2c0,0-0.1-0.1-0.1-0.3c0-0.2,0-0.4,0-0.7
			c0-0.3,0.1-0.5,0.1-0.8c0-0.1,0.1-0.2,0.1-0.3c0-0.1,0-0.2,0-0.2c0-0.1,0-0.1,0.1-0.2c0,0,0-0.1,0-0.2c0-0.1,0-0.1-0.1-0.2
			c0-0.1,0-0.1-0.1-0.1c0,0-0.1,0-0.2,0s-0.1,0-0.1,0c0,0,0,0.1-0.1,0.1c0,0.1-0.1,0.2-0.2,0.3c-0.1,0.1-0.1,0.2-0.2,0.3
			c0,0.1-0.1,0.2-0.3,0.5c-0.1,0.1-0.1,0.2-0.2,0.3c-0.1,0.1-0.1,0.1-0.1,0.2c0,0.1,0,0.1,0,0.1c0,0,0,0-0.1,0.1
			c0,0-0.1,0.1-0.1,0.2c0,0.1-0.1,0.2-0.2,0.2c-0.1,0.1-0.1,0.1-0.1,0.1c-0.1,0-0.1,0-0.2,0c-0.1,0-0.1-0.1,0-0.2c0-0.1,0-0.1,0-0.2
			c0-0.1,0-0.1,0-0.1c0,0,0-0.1,0-0.1c0,0,0-0.1,0-0.1c0,0,0-0.1,0-0.1c0,0,0-0.1,0-0.1c0-0.1,0.1-0.2,0.1-0.3
			c0-0.1,0.1-0.3,0.2-0.5c0.1-0.2,0.1-0.3,0.2-0.5c0.1-0.2,0.1-0.3,0.1-0.4c0-0.1,0-0.1,0-0.2c0,0-0.1-0.1-0.1-0.2
			c-0.1-0.1-0.1-0.1-0.2-0.1c0,0-0.1,0-0.2,0c-0.1,0.1-0.1,0.1-0.1,0.2c0,0,0,0.1,0,0.1c0,0.1,0,0.1,0,0.2c0,0.1-0.1,0.2-0.1,0.4
			c-0.1,0.2-0.1,0.4-0.2,0.6c-0.1,0.2-0.1,0.5-0.2,0.8c0,0,0,0.1,0,0.1c0,0,0,0,0,0.1c0,0.1-0.1,0.1-0.1,0.3c0,0.1,0,0.3,0,0.4
			c0,0.2,0,0.3,0,0.4c0,0.1,0,0.2,0,0.2c0,0,0,0.1,0.1,0.1c0.1,0,0.1,0.1,0.2,0.1c0.1,0,0.1,0,0.2,0.1c0.1,0,0.1,0,0.2,0
			c0.1,0,0.2-0.1,0.4-0.3c0.2-0.2,0.3-0.4,0.5-0.7c0.1-0.2,0.2-0.3,0.4-0.5c0,0.2,0,0.4,0,0.5c0,0.2,0,0.4,0,0.6
			c0,0.2,0.1,0.3,0.1,0.4c0.1,0.1,0.1,0.2,0.2,0.2c0.1,0,0.2,0.1,0.3,0.1c0.1,0,0.2,0,0.3-0.1c0.1-0.1,0.2-0.1,0.3-0.2
			c0.1-0.1,0.2-0.1,0.2-0.2c0.1-0.1,0.1-0.1,0.1-0.1c0,0,0-0.1,0.1-0.1c0-0.1,0.1-0.1,0.1-0.2c0.2-0.2,0.3-0.5,0.5-0.8
			c0.2-0.3,0.3-0.6,0.4-0.9c0.1-0.3,0.2-0.6,0.2-0.8C341.5,126.2,341.5,126.2,341.4,126.1z"/>
		<path class="st0" d="M345.9,128.9c-0.1,0-0.2-0.1-0.3-0.1c-0.1-0.1-0.2-0.1-0.2-0.2c-0.1-0.2-0.2-0.3-0.2-0.5c0-0.2,0-0.5,0.1-0.7
			l0.2-0.5l-0.4-0.3c-0.1-0.1-0.1-0.1-0.2-0.2c-0.1-0.1-0.1-0.1-0.2-0.2c0,0-0.1-0.1-0.1-0.1c-0.1-0.1-0.2-0.1-0.4-0.1
			c-0.2,0-0.3,0.1-0.5,0.2c-0.1,0-0.2,0.1-0.3,0.2c-0.1,0.1-0.2,0.2-0.3,0.3s-0.2,0.2-0.2,0.3c-0.1,0.1-0.1,0.1-0.1,0.2v0.1
			c0,0-0.1,0-0.1,0c0,0,0,0.1,0,0.1c0,0-0.1,0.1-0.1,0.2c-0.1,0.1-0.1,0.2-0.2,0.2c-0.1,0.2-0.2,0.5-0.3,0.7
			c-0.1,0.2-0.2,0.4-0.2,0.6c0,0.2,0,0.2,0,0.3c0,0,0,0.1,0,0.1c0,0,0,0.1,0,0.1c0,0,0,0.1,0.1,0.1c0,0,0.1,0.1,0.1,0.1
			c0.2,0.2,0.5,0.1,0.9,0c0.4-0.2,0.8-0.5,1.3-1c0,0,0.1-0.1,0.2-0.2c0.1-0.1,0.1-0.2,0.2-0.2c0,0,0,0.1,0.1,0.2
			c0,0.1,0.1,0.2,0.1,0.2c0.2,0.3,0.4,0.6,0.6,0.7c0.2,0.1,0.4,0.2,0.6,0.2c0.1,0,0.1,0,0.1-0.1c0,0,0-0.1,0-0.2
			c0-0.1,0-0.1-0.1-0.2C346,128.9,346,128.9,345.9,128.9z M344.4,127.2c-0.1,0.2-0.3,0.4-0.6,0.7c-0.2,0.2-0.5,0.5-0.7,0.7
			c-0.2,0.1-0.3,0.2-0.5,0.3c-0.2,0.1-0.2,0.1-0.2,0c0.1-0.3,0.2-0.5,0.3-0.6c0.2-0.3,0.4-0.6,0.6-0.9c0.2-0.3,0.4-0.5,0.6-0.7
			c0.2-0.2,0.3-0.3,0.4-0.3c0.1,0,0.1,0,0.2,0.1c0.1,0.1,0.2,0.2,0.2,0.3L344.4,127.2z"/>
		<path class="st0" d="M349.8,126.3C349.8,126.3,349.7,126.3,349.8,126.3c-0.1,0-0.1,0-0.1,0c0,0,0,0-0.1-0.1c0,0-0.1,0-0.1-0.1
			c-0.1,0-0.1,0-0.1,0c0,0-0.1,0-0.1,0.1c0,0.1-0.1,0.1-0.1,0.2c0,0.1-0.1,0.2-0.2,0.3s-0.1,0.2-0.2,0.3c-0.2,0.2-0.3,0.5-0.5,0.6
			c-0.1,0.2-0.3,0.4-0.4,0.5c-0.1,0.1-0.3,0.3-0.4,0.4c0,0,0-0.1,0-0.3c0-0.2,0.1-0.4,0.1-0.7c0,0,0-0.1,0-0.3c0-0.1,0-0.3,0.1-0.4
			c0-0.1,0-0.3,0-0.3c0-0.2,0-0.3-0.1-0.4c0-0.1-0.1-0.2-0.2-0.3c-0.1-0.1-0.2-0.2-0.2-0.2c-0.1,0-0.2,0-0.3,0
			c-0.1,0-0.1,0.1-0.1,0.2c0,0.1,0.1,0.1,0.1,0.2c0.1,0,0.1,0.1,0.1,0.2c0,0.1,0,0.2,0,0.3c0,0.1,0,0.3-0.1,0.6
			c-0.1,0.5-0.1,0.8-0.1,1.1c0,0.2,0,0.4,0,0.6c0,0.1,0.1,0.2,0.2,0.2c0.1,0,0.2,0.1,0.3,0.1c0.1,0,0.2,0,0.4-0.2
			c0.1-0.1,0.3-0.3,0.4-0.5c0.2-0.2,0.3-0.4,0.5-0.6c-0.1,0.2-0.2,0.5-0.3,0.8s-0.3,0.5-0.4,0.7c-0.1,0.2-0.2,0.3-0.2,0.4
			c-0.1,0.2-0.1,0.3-0.2,0.5c-0.1,0.2-0.1,0.3-0.2,0.4c-0.1,0.3-0.2,0.5-0.3,0.6c0,0.1,0,0.3,0,0.4c0,0,0,0.1,0.1,0.2
			c0,0.1,0.1,0.1,0.2,0.2c0.1,0,0.1,0.1,0.1,0c0.1,0,0.1,0,0.1,0c0-0.1,0.1-0.2,0.1-0.3c0-0.1,0.1-0.2,0.1-0.3
			c0.1-0.1,0.1-0.3,0.2-0.4c0.1-0.1,0.1-0.3,0.2-0.4c0.1-0.1,0.1-0.2,0.1-0.3c0-0.1,0.1-0.2,0.2-0.4s0.2-0.3,0.2-0.5
			c0.1-0.2,0.1-0.3,0.2-0.4c0.1-0.2,0.2-0.5,0.3-0.7c0.1-0.2,0.2-0.5,0.2-0.7c0-0.1,0.1-0.2,0.1-0.3c0-0.1,0.1-0.2,0.1-0.3
			c0-0.1,0-0.1,0-0.2c0,0,0-0.1,0-0.1c0-0.1,0.1-0.2,0.1-0.3c0-0.1,0.1-0.2,0.1-0.3C349.8,126.4,349.8,126.4,349.8,126.3
			C349.8,126.4,349.8,126.3,349.8,126.3z"/>
		<path class="st0" d="M353.3,125.6c-0.1-0.1-0.1-0.1-0.2-0.2c-0.1,0-0.2-0.1-0.3-0.1s-0.2,0-0.4,0.1c-0.1,0-0.3,0.1-0.5,0.2
			c-0.2,0.1-0.4,0.2-0.6,0.4c-0.2,0.1-0.3,0.3-0.5,0.4c-0.1,0.1-0.2,0.2-0.3,0.3c-0.1,0.1-0.2,0.3-0.2,0.4c0,0.1-0.1,0.2-0.1,0.3
			c0,0.1,0,0.2,0.1,0.4c0.1,0.1,0.1,0.2,0.2,0.2c0,0,0,0,0,0.1c0,0,0,0.1,0.1,0.2c0.1,0.1,0.2,0.2,0.4,0.3c0.1,0,0.1,0.1,0.2,0.1
			c0.1,0,0.1,0.1,0.1,0.1c0,0,0.1,0,0.1,0s0.1,0,0.1,0c0,0,0.1,0.1,0.1,0.1c0,0,0,0,0,0c0,0-0.1,0.1-0.2,0.1c-0.1,0-0.2,0-0.4,0.1
			c-0.1,0-0.2,0-0.3,0c-0.2,0-0.4,0-0.5,0c-0.1,0-0.2,0-0.2,0s0,0.1,0,0.1c0,0.1,0.1,0.1,0.2,0.2c0.1,0.1,0.2,0.2,0.4,0.2
			c0.1,0,0.2,0,0.4,0c0.2,0,0.3,0,0.5,0c0.2,0,0.3,0,0.3-0.1c0.2-0.1,0.3-0.2,0.4-0.3c0-0.1,0-0.3-0.1-0.5c0-0.1-0.1-0.1-0.1-0.2
			c-0.1-0.1-0.2-0.2-0.3-0.3c-0.1-0.1-0.3-0.3-0.6-0.5c-0.1-0.1-0.2-0.2-0.2-0.2c0,0,0-0.1,0-0.2c0-0.1,0-0.1,0-0.2
			c0-0.1,0-0.1,0-0.1c0,0,0.1-0.1,0.1-0.2c0.1-0.1,0.1-0.2,0.2-0.3c0.1-0.1,0.1-0.2,0.2-0.2c0-0.1,0.1-0.1,0.1,0c0,0,0,0,0.1,0
			c0,0,0,0,0.1-0.1c0.1-0.1,0.1-0.1,0.3-0.2c0.1-0.1,0.3-0.1,0.4-0.2c0.1-0.1,0.3-0.1,0.4-0.2c0.1,0,0.1,0,0.1,0c0,0,0,0,0,0.1
			c0,0,0,0.1-0.1,0.2c0,0.1-0.1,0.2-0.2,0.3c-0.1,0.1-0.1,0.1-0.1,0.1c0,0-0.1,0.1-0.1,0.1c0,0,0,0.1,0.1,0.1c0,0,0,0,0.1,0
			c0,0,0,0,0,0.1c0,0.1,0.1,0.1,0.2,0.1c0.1,0,0.2-0.1,0.3-0.2c0.1-0.1,0.2-0.2,0.2-0.2c0,0,0-0.1,0.1-0.1c0,0,0.1,0,0.1-0.1
			c0-0.1,0-0.2,0.1-0.3c0-0.1,0-0.2,0-0.3c0,0,0-0.1-0.1-0.2C353.4,125.7,353.4,125.7,353.3,125.6z"/>
		<path class="st0" d="M359.1,125.8c-0.1,0-0.2,0-0.3,0c-0.1,0-0.2,0-0.3,0c-0.1,0-0.2,0-0.2,0c-0.1,0-0.1,0-0.1,0
			c0.1-0.1,0.1-0.2,0.1-0.3c0.1-0.2,0.2-0.4,0.3-0.5c0.1-0.1,0.1-0.2,0.1-0.3c0-0.1,0-0.1,0-0.1c0,0,0-0.1-0.1-0.1
			c-0.1-0.1-0.1-0.2-0.2-0.2c-0.1,0-0.1,0-0.3,0.1c0,0-0.1,0.1-0.2,0.3c-0.1,0.2-0.2,0.3-0.2,0.5c-0.1,0.2-0.2,0.4-0.2,0.5
			c-0.1,0.1-0.2,0.1-0.3,0.2c-0.1,0-0.2,0.1-0.3,0.1c-0.1,0-0.2,0-0.3,0c-0.1,0-0.1,0-0.2,0.1c0,0.1,0,0.1,0,0.1c0,0,0,0.1,0,0.1
			c0,0,0,0,0,0.1c0,0,0,0.1,0,0.1c0,0,0.1,0,0.2,0c0.1,0,0.2,0,0.3,0c0.1,0,0.1,0.1,0.1,0.2c0,0,0,0.1-0.1,0.3
			c0,0.1-0.1,0.3-0.1,0.5c0,0.2-0.1,0.4-0.1,0.5c0,0.2,0,0.3,0,0.4c0,0.2,0,0.4,0,0.5c0,0.1,0,0.2,0.1,0.3c0,0.1,0.1,0.2,0.2,0.3
			c0.1,0.1,0.2,0.2,0.3,0.2c0.1,0,0.1,0.1,0.2,0.1c0.1,0,0.2,0,0.4,0c0.1,0,0.3-0.1,0.4-0.2c0.1-0.1,0.2-0.2,0.3-0.3
			c0.1-0.1,0.1-0.2,0.1-0.3c0-0.1-0.1-0.1-0.1-0.1c-0.1,0-0.2,0.1-0.3,0.2c-0.1,0.1-0.3,0.2-0.4,0.2c-0.2,0-0.3,0-0.4,0
			c-0.1-0.1-0.1-0.2-0.1-0.4c0-0.2,0-0.4,0-0.6c0-0.2,0.1-0.5,0.1-0.7c0-0.1,0.1-0.3,0.1-0.4c0-0.2,0.1-0.3,0.1-0.4
			c0-0.1,0.1-0.2,0.1-0.2c0,0,0.1,0,0.2,0c0.1,0,0.2,0,0.4,0c0.1,0,0.3,0,0.4,0c0.1,0,0.2,0,0.3,0c0.2,0,0.3,0,0.4,0
			c0,0,0.1-0.1,0-0.1c0-0.1,0-0.2-0.1-0.3C359.4,125.8,359.3,125.8,359.1,125.8z"/>
		<path class="st0" d="M363,127c0.1-0.1,0.2-0.2,0.3-0.2c0.1-0.1,0.1-0.1,0-0.1c0,0-0.1,0-0.1,0c0,0,0-0.1,0-0.1
			c0,0-0.1-0.1-0.2-0.1c-0.1,0-0.1,0-0.2,0s-0.1,0-0.1,0c0,0-0.1,0.1-0.3,0.1c-0.1,0-0.3,0.1-0.4,0.1c-0.1,0-0.2,0-0.2,0
			c0,0,0-0.1,0-0.1c0,0,0.1,0,0.1,0c0.2-0.1,0.2-0.2,0.1-0.4c-0.1-0.1-0.1-0.2-0.3-0.2c-0.1,0-0.3,0-0.4,0.1
			c-0.2,0.1-0.3,0.2-0.5,0.4c-0.2,0.2-0.3,0.4-0.5,0.7c-0.1,0.3-0.3,0.5-0.4,0.8c-0.1,0.3-0.2,0.5-0.2,0.8c0,0.1,0,0.1,0,0.2
			c0,0.1,0.1,0.2,0.2,0.3c0.1,0.1,0.2,0.2,0.3,0.2c0.1,0.1,0.1,0.1,0.2,0.1c0,0,0.1,0,0.3,0c0.2,0,0.4-0.1,0.6-0.2
			c0.2-0.1,0.4-0.2,0.6-0.4c0.2-0.2,0.3-0.3,0.5-0.5c0.1-0.2,0.2-0.4,0.3-0.5c0-0.2,0-0.3,0-0.5c0-0.1,0-0.1,0-0.2
			C362.8,127.1,362.9,127.1,363,127z M362.2,127.7c-0.1,0.1-0.2,0.3-0.3,0.4c-0.1,0.2-0.2,0.3-0.3,0.4c-0.1,0.1-0.1,0.1-0.2,0.2
			c0,0-0.1,0-0.1,0c0,0-0.1,0-0.1,0.1c0,0-0.1,0.1-0.1,0.1c0,0-0.1,0-0.2,0.1c-0.1,0-0.1,0-0.1,0c-0.1,0-0.1,0-0.2-0.1
			s-0.1-0.1-0.1-0.2c0-0.1,0.1-0.3,0.1-0.5c0.1-0.2,0.2-0.5,0.3-0.7c0.1-0.2,0.2-0.4,0.4-0.5l0.2-0.2l0.2,0.2
			c0.1,0.1,0.1,0.1,0.2,0.2c0.1,0,0.1,0.1,0.2,0.1c0,0,0.1,0,0.1,0.1c0,0,0.1,0,0.1,0.1C362.3,127.4,362.3,127.6,362.2,127.7z"/>
		<path class="st0" d="M366.6,126.4c-0.1-0.2-0.1-0.3-0.2-0.3c0-0.1-0.1-0.1-0.2-0.2c-0.1-0.1-0.1-0.1-0.2-0.1s-0.1,0-0.2,0
			c-0.1,0-0.3,0-0.5,0.1c-0.2,0.1-0.4,0.2-0.6,0.3c-0.2,0.1-0.4,0.3-0.5,0.4c-0.2,0.2-0.3,0.4-0.4,0.6c-0.1,0.2-0.2,0.4-0.2,0.5
			c0,0.1,0,0.2,0,0.2c0,0.1,0,0.1,0.1,0.1s0.1,0.1,0.1,0.2c0.1,0.1,0.2,0.2,0.4,0.2c0.1,0,0.2,0.1,0.3,0c0.1,0,0.2,0,0.2,0
			c0.1,0,0.1,0,0.2-0.1c0.1,0,0.2-0.1,0.3-0.1c0.1,0,0.1-0.1,0.2-0.1c0,0,0.1,0,0.1,0c0.1-0.1,0.1-0.1,0.1,0c0,0.1,0,0.2,0,0.3
			c0,0.2-0.1,0.4-0.2,0.7c-0.1,0.3-0.1,0.6-0.2,0.8l0,0.1c-0.1,0.2-0.1,0.4-0.2,0.6c-0.1,0.1-0.2,0.3-0.3,0.4
			c-0.1,0-0.1,0.1-0.2,0.1c-0.1,0-0.2,0-0.3-0.1c-0.1,0-0.1-0.1-0.2-0.1c-0.1-0.1-0.2-0.1-0.2-0.2c0,0,0-0.1-0.1-0.1
			c0,0-0.1,0-0.1,0c0,0-0.1,0-0.1,0c0,0,0,0.1,0,0.2c0,0.1,0.1,0.2,0.1,0.3c0.1,0.1,0.1,0.2,0.2,0.2c0.1,0.1,0.3,0.2,0.4,0.3
			c0.2,0.1,0.3,0.1,0.5,0.1s0.3,0,0.4-0.1c0.1-0.1,0.3-0.3,0.4-0.6c0.1-0.3,0.3-0.8,0.4-1.4c0-0.2,0-0.3,0.1-0.4c0-0.1,0-0.1,0-0.2
			c0,0,0-0.1,0-0.1l0-0.2c0,0,0,0,0-0.1c0-0.1,0-0.1,0.1-0.2l0-0.1c0-0.1,0-0.1,0-0.2c0-0.1,0-0.1,0.1-0.1c0,0,0,0,0-0.1
			c0,0,0,0,0-0.1c0,0,0,0,0-0.1c0,0,0-0.1,0-0.1c0,0,0-0.1,0-0.1c0,0,0-0.1,0-0.1c0-0.1,0-0.1,0.1-0.2c0,0,0.1-0.1,0.1-0.1
			c0,0,0.1,0,0.1,0c0,0,0,0,0,0c0,0,0,0,0,0c0,0,0.1-0.1,0.1-0.2s0-0.2,0-0.3c0-0.1,0-0.2,0-0.3
			C366.6,126.6,366.6,126.5,366.6,126.4z M366,126.8c0,0.2-0.1,0.3-0.2,0.5c-0.1,0.2-0.2,0.3-0.4,0.4c-0.3,0.2-0.5,0.3-0.7,0.4
			c-0.2,0.1-0.4,0-0.6,0c0,0,0-0.1,0-0.2c0-0.1,0.1-0.2,0.2-0.4c0.1-0.1,0.1-0.2,0.2-0.3c0,0,0,0,0.1-0.1c0,0,0,0,0-0.1
			c0.1,0,0.1-0.1,0.2-0.1c0,0,0.1-0.1,0.1-0.1c0.2-0.1,0.4-0.2,0.6-0.3c0.2-0.1,0.3-0.1,0.5-0.1c0.1,0,0.1,0,0.1,0.1
			C366,126.6,366,126.6,366,126.8z"/>
		<path class="st0" d="M370.4,126.2c-0.1-0.1-0.2-0.2-0.2-0.2c-0.1-0.1-0.2-0.1-0.3-0.1c-0.1,0-0.1,0-0.2,0c-0.1,0-0.2,0-0.2,0.1
			c-0.1,0-0.1,0-0.2,0.1c-0.1,0-0.2,0.1-0.3,0.2c-0.1,0.1-0.2,0.2-0.3,0.3c-0.1,0.1-0.2,0.2-0.3,0.3c-0.1,0.1-0.1,0.2-0.2,0.3
			c-0.1,0-0.1,0-0.1,0c0,0,0,0-0.1-0.1c0,0-0.1,0-0.1,0c0,0-0.1,0-0.1,0c0,0-0.1,0-0.1,0c0,0,0,0-0.1,0.1c0,0.1,0,0.1,0,0.2
			c0,0,0,0.1,0.1,0.1c0.1,0,0.1,0.1,0.1,0.1c0.1,0.1,0.1,0.1,0.1,0.2c0,0.1,0,0.2,0,0.4c0,0.4,0,0.7,0,0.9c0.1,0.2,0.3,0.4,0.5,0.5
			c0.2,0.1,0.3,0.1,0.5,0.1c0.2,0,0.4-0.1,0.6-0.2c0.1,0,0.1-0.1,0.2-0.2c0.1-0.1,0.2-0.1,0.2-0.2c0.1-0.1,0.1-0.1,0.1-0.2
			c0.1-0.1,0.1-0.2,0.1-0.3c0-0.1,0-0.1-0.1-0.2c-0.1,0-0.1,0-0.2,0c-0.1,0-0.1,0-0.1,0.1c-0.1,0.1-0.2,0.2-0.4,0.4
			c-0.1,0.1-0.3,0.2-0.4,0.3c-0.2,0-0.3,0-0.4,0c-0.1-0.1-0.2-0.1-0.2-0.2c0,0,0-0.1,0-0.1c0-0.1,0-0.2,0-0.3c0-0.2,0-0.3,0.1-0.5
			c0-0.1,0.1-0.1,0.1-0.1c0,0,0.1,0,0.2,0c0.1,0,0.3,0,0.4,0c0.1,0,0.3,0,0.4-0.1c0.1,0,0.2-0.1,0.3-0.2c0.1-0.1,0.2-0.2,0.3-0.3
			c0.1-0.1,0.2-0.2,0.2-0.3c0-0.1,0.1-0.2,0.1-0.3c0-0.1,0-0.2,0-0.3C370.6,126.3,370.5,126.2,370.4,126.2z M370,126.9
			c-0.1,0.2-0.2,0.3-0.3,0.4c-0.1,0.1-0.2,0.1-0.3,0.1c-0.1,0-0.2,0-0.4,0.1c0,0-0.1,0-0.2,0c-0.1,0-0.1,0-0.1-0.1c0,0,0-0.1,0-0.1
			c0.1-0.1,0.1-0.2,0.2-0.3c0.1-0.1,0.2-0.2,0.3-0.3c0.1-0.1,0.2-0.1,0.2-0.2c0.1-0.1,0.2-0.1,0.2-0.1c0.1,0,0.2,0,0.2,0.1
			c0,0,0,0.1,0.1,0.2C370.1,126.7,370,126.8,370,126.9z"/>
		<path class="st0" d="M373.9,125.8c-0.1,0-0.2,0-0.3,0c-0.1,0-0.2,0-0.3,0c-0.1,0-0.2,0-0.2,0c-0.1,0-0.1,0-0.1,0
			c0.1-0.1,0.1-0.2,0.1-0.3c0.1-0.2,0.2-0.4,0.3-0.5c0.1-0.1,0.1-0.2,0.1-0.3c0-0.1,0-0.1,0-0.1c0,0,0-0.1-0.1-0.1
			c-0.1-0.1-0.1-0.2-0.2-0.2c-0.1,0-0.1,0-0.3,0.1c0,0-0.1,0.1-0.2,0.3c-0.1,0.2-0.2,0.3-0.2,0.5c-0.1,0.2-0.2,0.4-0.2,0.5
			c-0.1,0.1-0.2,0.1-0.3,0.2c-0.1,0-0.2,0.1-0.3,0.1c-0.1,0-0.2,0-0.3,0c-0.1,0-0.1,0-0.2,0.1c0,0.1,0,0.1,0,0.1c0,0,0,0.1,0,0.1
			c0,0,0,0,0,0.1c0,0,0,0.1,0,0.1c0,0,0.1,0,0.2,0c0.1,0,0.2,0,0.3,0c0.1,0,0.1,0.1,0.1,0.2c0,0,0,0.1-0.1,0.3
			c0,0.1-0.1,0.3-0.1,0.5c0,0.2-0.1,0.4-0.1,0.5c0,0.2,0,0.3,0,0.4c0,0.2,0,0.4,0,0.5c0,0.1,0,0.2,0.1,0.3c0,0.1,0.1,0.2,0.2,0.3
			c0.1,0.1,0.2,0.2,0.3,0.2s0.1,0.1,0.2,0.1c0.1,0,0.2,0,0.4,0c0.1,0,0.3-0.1,0.4-0.2c0.1-0.1,0.2-0.2,0.3-0.3
			c0.1-0.1,0.1-0.2,0.1-0.3c0-0.1-0.1-0.1-0.1-0.1c-0.1,0-0.2,0.1-0.3,0.2c-0.1,0.1-0.3,0.2-0.4,0.2c-0.2,0-0.3,0-0.4,0
			c-0.1-0.1-0.1-0.2-0.1-0.4c0-0.2,0-0.4,0-0.6c0-0.2,0.1-0.5,0.1-0.7c0-0.1,0.1-0.3,0.1-0.4c0-0.2,0.1-0.3,0.1-0.4
			c0-0.1,0.1-0.2,0.1-0.2c0,0,0.1,0,0.2,0c0.1,0,0.2,0,0.4,0c0.1,0,0.3,0,0.4,0c0.1,0,0.2,0,0.3,0c0.2,0,0.3,0,0.4,0s0.1-0.1,0-0.1
			c0-0.1,0-0.2-0.1-0.3C374.2,125.8,374.1,125.8,373.9,125.8z"/>
		<path class="st0" d="M378.3,129.2c-0.1,0-0.1-0.1-0.1-0.1c0,0,0-0.1,0-0.2c0-0.1,0-0.3,0.1-0.5c0-0.3,0-0.6,0.1-0.7
			c0-0.2,0-0.3,0-0.3c0-0.1,0-0.2-0.1-0.3c0-0.1-0.1-0.2-0.1-0.3c-0.1-0.1-0.1-0.2-0.2-0.2c-0.1-0.1-0.1-0.1-0.2-0.1
			c-0.1,0-0.3,0.1-0.5,0.2c-0.2,0.2-0.4,0.3-0.6,0.6c-0.2,0.2-0.4,0.4-0.6,0.6c-0.1,0.2-0.2,0.2-0.3,0.2c0-0.1,0-0.2,0.1-0.3
			c0-0.2,0.1-0.4,0.2-0.6c0.1-0.2,0.2-0.4,0.3-0.7c0.1-0.2,0.2-0.4,0.3-0.6c0.1-0.2,0.1-0.3,0.2-0.3c0.1-0.2,0.1-0.3,0.2-0.6
			c0.1-0.2,0.1-0.4,0.2-0.5c0.1-0.3,0.2-0.5,0.2-0.6c0-0.1,0-0.3,0-0.4c0,0,0-0.1-0.1-0.2c-0.1-0.1-0.1-0.1-0.2-0.2
			c-0.1,0-0.1-0.1-0.1,0c-0.1,0-0.1,0-0.1,0c0,0,0,0.1-0.1,0.1c0,0.1,0,0.1,0,0.2c0,0.1-0.1,0.2-0.1,0.3c-0.1,0.2-0.1,0.3-0.2,0.5
			c-0.1,0.2-0.1,0.3-0.2,0.5c-0.1,0.1-0.1,0.2-0.1,0.3c0,0.1-0.1,0.2-0.1,0.4c-0.1,0.2-0.1,0.3-0.2,0.5c-0.1,0.2-0.1,0.3-0.1,0.4
			c-0.1,0.2-0.1,0.4-0.2,0.7c-0.1,0.3-0.2,0.5-0.2,0.7c0,0.1-0.1,0.2-0.1,0.3c0,0.1-0.1,0.3-0.1,0.5c-0.1,0.2-0.1,0.3-0.1,0.4
			c0,0.1-0.1,0.2-0.1,0.2c0,0,0,0.1,0.1,0.1c0.1,0.1,0.1,0.1,0.2,0.1c0.1,0,0.2,0.1,0.2,0.1c0,0,0.1,0,0.1-0.1
			c0.1-0.1,0.2-0.2,0.3-0.4c0.3-0.3,0.5-0.6,0.8-0.8c0.3-0.3,0.5-0.5,0.7-0.6c0.2-0.2,0.3-0.2,0.4-0.2c0,0,0.1,0.1,0.1,0.2
			c0,0.2,0,0.4-0.1,0.6c0,0.1,0,0.2,0,0.3c0,0.2,0,0.3,0,0.4c0,0.2,0,0.3,0.1,0.4c0,0.1,0.1,0.2,0.2,0.3c0.1,0.1,0.2,0.2,0.3,0.2
			s0.2,0,0.3,0c0.1-0.1,0.1-0.1,0.1-0.2C378.4,129.4,378.4,129.3,378.3,129.2z"/>
		<path class="st0" d="M382.2,126.1c0-0.1-0.1-0.1-0.2-0.2c-0.1,0-0.2-0.1-0.4-0.1c-0.2,0-0.3,0-0.3,0c-0.1,0-0.2,0-0.3,0.1
			c-0.2,0.1-0.4,0.2-0.7,0.5s-0.4,0.5-0.6,0.7c-0.2,0.3-0.2,0.6-0.3,0.8c0,0.3,0,0.6,0,0.8c0,0.2,0.1,0.4,0.2,0.5
			c0.1,0.2,0.3,0.3,0.5,0.4c0.2,0.1,0.4,0.1,0.6,0.1c0.2,0,0.4-0.1,0.5-0.2c0.2-0.1,0.3-0.2,0.4-0.3c0.1-0.1,0.2-0.2,0.2-0.3
			c0-0.1,0-0.1,0-0.1c0,0-0.1,0-0.1-0.1c0,0-0.1,0-0.1,0c0,0-0.1,0-0.1,0c0,0-0.1,0.1-0.1,0.1c-0.1,0.1-0.1,0.1-0.1,0.1
			c0,0,0,0-0.1,0c0,0-0.1,0.1-0.2,0.1c-0.1,0.1-0.2,0.1-0.3,0.1c-0.1,0-0.2,0-0.3-0.1c-0.1,0-0.2-0.1-0.3-0.2
			c-0.1-0.1-0.1-0.3-0.1-0.6c0-0.3,0.1-0.5,0.1-0.5c0-0.1,0.1-0.1,0.3,0c0.1,0.1,0.3,0.1,0.5,0.1c0.2,0,0.4,0,0.5-0.1
			c0.3-0.1,0.5-0.3,0.7-0.5c0.2-0.2,0.3-0.4,0.3-0.6c0-0.1,0-0.2-0.1-0.3C382.3,126.3,382.3,126.2,382.2,126.1z M381.7,126.9
			c-0.1,0.1-0.1,0.2-0.2,0.2c-0.1,0.1-0.2,0.1-0.2,0.2c-0.1,0-0.2,0.1-0.3,0.1c-0.1,0-0.2,0-0.3,0c-0.1,0-0.2,0-0.2-0.1
			c0,0,0-0.1,0.1-0.1c0.1-0.1,0.1-0.2,0.2-0.3c0.1-0.1,0.2-0.2,0.3-0.3c0.1-0.1,0.2-0.1,0.3-0.2c0.2,0,0.3,0,0.4,0
			c0.1,0.1,0.1,0.1,0.1,0.2C381.8,126.7,381.8,126.8,381.7,126.9z"/>
		<path class="st0" d="M386.5,126.6c-0.1-0.1-0.1-0.1-0.1-0.2c0-0.1-0.1-0.2-0.3-0.2c-0.2,0-0.3,0-0.5,0.1c0,0-0.1,0-0.2,0.1
			c-0.1,0-0.1,0.1-0.2,0.1c0,0-0.1,0.1-0.2,0.1c-0.1,0.1-0.2,0.2-0.4,0.3c-0.1,0.1-0.2,0.2-0.4,0.3c-0.1,0.1-0.2,0.2-0.2,0.3
			c-0.1,0-0.1,0-0.1,0c0,0,0-0.1,0.1-0.2c0-0.1,0.1-0.2,0.2-0.4c0.2-0.3,0.3-0.6,0.3-0.7c0.1-0.2,0-0.3,0-0.3
			c-0.1-0.1-0.1-0.1-0.2-0.1c-0.1,0-0.1,0-0.2,0.1c-0.1,0.1-0.2,0.3-0.3,0.5c-0.1,0.2-0.2,0.4-0.3,0.7s-0.2,0.5-0.2,0.7
			c-0.1,0.2-0.1,0.3-0.1,0.4c0,0.2-0.1,0.4-0.1,0.5c0,0.2-0.1,0.3-0.1,0.5c0,0.1,0,0.2,0,0.3c0,0,0.1,0.1,0.1,0.1
			c0.1,0.1,0.2,0.2,0.3,0.2c0.1,0,0.1-0.1,0.2-0.2c0-0.1,0.1-0.2,0.1-0.3c0,0,0-0.1,0-0.2c0-0.1,0.1-0.2,0.1-0.3
			c0-0.1,0.1-0.2,0.1-0.2c0.1-0.1,0.1-0.2,0.2-0.3c0-0.1,0.1-0.1,0.1-0.2c0.2-0.2,0.5-0.4,0.7-0.6c0.2-0.1,0.5-0.3,0.8-0.5
			c0.1,0,0.2-0.1,0.3-0.1c0.1,0,0.2,0,0.2-0.1c0.1,0,0.2,0,0.3,0C386.5,126.7,386.5,126.7,386.5,126.6
			C386.5,126.6,386.5,126.6,386.5,126.6z"/>
	</g>
	<g>
		<path class="st1" d="M341.9,108.8c-0.2-0.1-0.5-0.2-0.8-0.2c-0.3,0-0.7,0.1-1,0.2c-0.1,1-0.3,2-0.4,2.9c-0.1,0.9-0.3,1.8-0.5,2.8
			c-0.2,0.9-0.3,1.9-0.5,2.9h-0.1c-0.2-0.6-0.3-1.2-0.5-1.8c-0.2-0.6-0.4-1.2-0.6-1.8c-0.2-0.6-0.4-1.3-0.7-2.1
			c0-0.2-0.2-0.4-0.4-0.5c-0.2-0.1-0.5-0.2-0.9-0.2c-0.2,0-0.4,0-0.6,0.1c-0.2,0.1-0.4,0.1-0.5,0.2c-0.2,0.7-0.3,1.3-0.5,1.9
			c-0.2,0.5-0.3,1-0.4,1.5c-0.1,0.5-0.3,0.9-0.4,1.3c-0.1,0.4-0.3,0.9-0.4,1.4h-0.1c-0.1-0.5-0.2-1.1-0.3-1.6
			c-0.1-0.5-0.2-1.1-0.3-1.7c-0.1-0.6-0.2-1.3-0.4-2c-0.1-0.7-0.3-1.6-0.5-2.5c-0.1-0.3-0.2-0.6-0.4-0.7c-0.2-0.1-0.5-0.2-0.8-0.2
			c-0.2,0-0.5,0-0.7,0.1c-0.2,0.1-0.4,0.2-0.5,0.3c0.1,0.6,0.2,1.2,0.3,2c0.1,0.7,0.3,1.5,0.5,2.3c0.2,0.8,0.3,1.5,0.5,2.3
			c0.2,0.7,0.3,1.4,0.5,1.9c0.2,0.6,0.3,1,0.4,1.2c0.1,0.2,0.3,0.3,0.6,0.5c0.3,0.1,0.6,0.2,1,0.2c0.3,0,0.6,0,0.9-0.1
			c0.3-0.1,0.4-0.2,0.6-0.3c0.1-0.4,0.3-0.9,0.5-1.4c0.2-0.6,0.4-1.2,0.6-1.9c0.2-0.7,0.4-1.3,0.5-2c0.2,0.7,0.4,1.3,0.6,1.9
			c0.2,0.6,0.4,1.2,0.5,1.8c0.2,0.5,0.3,1,0.5,1.3c0.1,0.2,0.2,0.4,0.5,0.5c0.3,0.1,0.6,0.2,1,0.2c0.3,0,0.6,0,0.9-0.1
			c0.3-0.1,0.5-0.2,0.6-0.3c0.1-0.4,0.3-0.8,0.4-1.3c0.1-0.5,0.3-1.1,0.4-1.7c0.1-0.6,0.3-1.3,0.4-1.9c0.1-0.6,0.3-1.3,0.3-1.9
			c0.1-0.6,0.2-1.1,0.2-1.6c0.1-0.5,0.1-0.8,0.1-1C342.3,109.1,342.2,108.9,341.9,108.8z"/>
		<path class="st1" d="M350.6,111.1c-0.6-0.4-1.4-0.5-2.2-0.5c-0.9,0-1.6,0.2-2.2,0.5c-0.6,0.4-1.1,0.9-1.5,1.5
			c-0.4,0.7-0.5,1.4-0.5,2.3c0,0.9,0.2,1.7,0.5,2.3c0.4,0.7,0.9,1.2,1.5,1.5c0.6,0.4,1.4,0.5,2.3,0.5c0.9,0,1.6-0.2,2.2-0.5
			c0.6-0.4,1.1-0.9,1.5-1.5c0.3-0.7,0.5-1.4,0.5-2.3c0-0.9-0.2-1.7-0.5-2.3C351.7,111.9,351.2,111.4,350.6,111.1z M349.9,116.9
			c-0.4,0.5-0.9,0.7-1.5,0.7c-0.7,0-1.2-0.2-1.5-0.7c-0.4-0.5-0.5-1.1-0.5-2c0-0.8,0.2-1.5,0.6-2c0.4-0.5,0.9-0.7,1.5-0.7
			c0.6,0,1.1,0.2,1.5,0.7c0.4,0.5,0.5,1.1,0.5,1.9C350.4,115.7,350.2,116.4,349.9,116.9z"/>
		<path class="st1" d="M361,111.1c-0.6-0.4-1.4-0.5-2.2-0.5c-0.9,0-1.6,0.2-2.2,0.5c-0.6,0.4-1.1,0.9-1.5,1.5
			c-0.4,0.7-0.5,1.4-0.5,2.3c0,0.9,0.2,1.7,0.5,2.3c0.4,0.7,0.9,1.2,1.5,1.5c0.6,0.4,1.4,0.5,2.3,0.5c0.9,0,1.6-0.2,2.2-0.5
			c0.6-0.4,1.1-0.9,1.5-1.5c0.3-0.7,0.5-1.4,0.5-2.3c0-0.9-0.2-1.7-0.5-2.3C362.1,111.9,361.6,111.4,361,111.1z M360.2,116.9
			c-0.4,0.5-0.9,0.7-1.5,0.7c-0.7,0-1.2-0.2-1.5-0.7c-0.4-0.5-0.5-1.1-0.5-2c0-0.8,0.2-1.5,0.6-2c0.4-0.5,0.9-0.7,1.5-0.7
			c0.6,0,1.1,0.2,1.5,0.7c0.4,0.5,0.5,1.1,0.5,1.9C360.8,115.7,360.6,116.4,360.2,116.9z"/>
		<path class="st1" d="M371.7,107.5c-0.2,0-0.4,0-0.6,0.1c-0.2,0-0.3,0.1-0.4,0.1v3.2c-0.1-0.1-0.3-0.1-0.5-0.2
			c-0.4-0.1-0.7-0.2-1.2-0.2c-0.8,0-1.5,0.2-2.1,0.5c-0.6,0.3-1.2,0.8-1.5,1.4c-0.4,0.7-0.6,1.5-0.6,2.5c0,1,0.2,1.8,0.6,2.5
			c0.4,0.6,0.9,1.1,1.6,1.4c0.7,0.3,1.5,0.5,2.4,0.5c0.6,0,1.2-0.1,1.7-0.2c0.5-0.1,0.9-0.3,1.1-0.5c0.2-0.2,0.4-0.3,0.5-0.5
			c0.1-0.2,0.2-0.4,0.2-0.6v-5.3v-0.4v-3.2c0-0.4-0.1-0.6-0.3-0.8C372.4,107.6,372.1,107.5,371.7,107.5z M370.2,117.5
			c-0.2,0.1-0.5,0.1-0.8,0.1c-0.7,0-1.3-0.2-1.7-0.6c-0.4-0.4-0.6-1.1-0.6-2c0-0.6,0.1-1.2,0.3-1.6c0.2-0.4,0.5-0.7,0.8-0.9
			c0.3-0.2,0.7-0.3,1.2-0.3c0.4,0,0.7,0.1,1,0.2c0.1,0.1,0.2,0.1,0.3,0.2v4.6C370.6,117.3,370.4,117.4,370.2,117.5z"/>
		<path class="st1" d="M379.6,113.9h-4c-0.2,0-0.4,0.1-0.6,0.2c-0.2,0.1-0.2,0.4-0.2,0.7c0,0.2,0,0.3,0.1,0.5c0,0.1,0.1,0.3,0.2,0.4
			h4c0.3,0,0.5-0.1,0.6-0.2c0.2-0.2,0.2-0.4,0.2-0.7c0-0.2,0-0.3-0.1-0.5C379.7,114.1,379.6,114,379.6,113.9z"/>
		<path class="st1" d="M389.8,117.4h-5.4l4.9-6.4c0.2-0.2,0.3-0.4,0.4-0.6c0.1-0.2,0.1-0.4,0.1-0.7c0-0.5-0.2-0.8-0.5-1.1h-0.4h-0.3
			h-6c-0.3,0-0.5,0.1-0.6,0.2c-0.1,0.2-0.2,0.4-0.2,0.7c0,0.2,0,0.4,0.1,0.5c0.1,0.2,0.1,0.3,0.2,0.4h5.1l-5,6.4
			c-0.2,0.2-0.3,0.4-0.4,0.6c-0.1,0.2-0.2,0.4-0.2,0.7c0,0.2,0,0.4,0.1,0.6c0.1,0.2,0.2,0.4,0.4,0.5h0.3h0.5h6.2
			c0.2,0,0.4-0.1,0.6-0.2c0.1-0.2,0.2-0.4,0.2-0.7c0-0.2,0-0.4-0.1-0.5C389.9,117.6,389.8,117.5,389.8,117.4z"/>
		<path class="st1" d="M398.1,111.1c-0.6-0.4-1.4-0.5-2.2-0.5c-0.9,0-1.6,0.2-2.2,0.5c-0.6,0.4-1.1,0.9-1.5,1.5
			c-0.4,0.7-0.5,1.4-0.5,2.3c0,0.9,0.2,1.7,0.5,2.3c0.4,0.7,0.9,1.2,1.5,1.5c0.6,0.4,1.4,0.5,2.3,0.5c0.9,0,1.6-0.2,2.2-0.5
			c0.6-0.4,1.1-0.9,1.5-1.5c0.3-0.7,0.5-1.4,0.5-2.3c0-0.9-0.2-1.7-0.5-2.3C399.3,111.9,398.8,111.4,398.1,111.1z M397.4,116.9
			c-0.4,0.5-0.9,0.7-1.5,0.7c-0.7,0-1.2-0.2-1.5-0.7c-0.4-0.5-0.5-1.1-0.5-2c0-0.8,0.2-1.5,0.6-2c0.4-0.5,0.9-0.7,1.5-0.7
			c0.6,0,1.1,0.2,1.5,0.7c0.4,0.5,0.5,1.1,0.5,1.9C398,115.7,397.8,116.4,397.4,116.9z"/>
		<path class="st1" d="M410,112.6c-0.4-0.7-0.9-1.2-1.5-1.5c-0.6-0.4-1.4-0.5-2.2-0.5c-0.9,0-1.6,0.2-2.2,0.5
			c-0.6,0.4-1.1,0.9-1.5,1.5c-0.4,0.7-0.5,1.4-0.5,2.3c0,0.9,0.2,1.7,0.5,2.3c0.4,0.7,0.9,1.2,1.5,1.5c0.6,0.4,1.4,0.5,2.3,0.5
			c0.9,0,1.6-0.2,2.2-0.5c0.6-0.4,1.1-0.9,1.5-1.5c0.3-0.7,0.5-1.4,0.5-2.3C410.5,114,410.4,113.2,410,112.6z M407.8,116.9
			c-0.4,0.5-0.9,0.7-1.5,0.7c-0.7,0-1.2-0.2-1.5-0.7c-0.4-0.5-0.5-1.1-0.5-2c0-0.8,0.2-1.5,0.6-2c0.4-0.5,0.9-0.7,1.5-0.7
			c0.6,0,1.1,0.2,1.5,0.7c0.4,0.5,0.5,1.1,0.5,1.9C408.3,115.7,408.2,116.4,407.8,116.9z"/>
	</g>
	<g>
		<path class="st0" d="M318.1,112.6c-0.6,0.6-1.3,1-1.9,1c-0.5,0-1-0.2-1.4-0.5c-0.5-0.4-0.8-1.1-0.7-1.8c0.1-1,0.9-1.9,2-2.5
			c-3.7-2.4-8-1.6-12.9,0.6c0.2,0.1,0.3,0.3,0.4,0.3c0,0,1.4,1.3,1.2,2.5c-0.1,0.5-0.4,0.9-0.9,1.1c-1.6,0.7-2.5-0.2-2.9-0.6
			l-0.1-0.1c-0.2-0.1-0.5-0.4-0.8-0.6c0.2,1.3,0.7,3.8,1.3,6c0.8,3.3,2,5.3,2.4,6c0.3,0.5,0.5,0.6,0.6,0.6c0.1,0,0.3-0.1,0.4-0.1
			c0.6-0.5,1.4-1.1,2-2.6c0.3-0.8,0.7-1.6,1.2-2.1c-0.4-0.3-0.8-0.7-0.9-0.9c-0.2-0.2-1.3-1.6-1.3-2.9c0-0.4,0.1-0.7,0.4-1
			c0.7-0.7,2.1-0.6,3.1-0.6l0.2,0c0.3,0,1.9,0,2.9,1.1c0.2,0.3,0.6,0.9,0.2,1.9c-0.3,0.8-1.1,1.8-1.9,2.4c0.3,0.2,0.4,0.5,0.5,0.7
			c0.2,0.4,0.7,1.4,0.8,1.6c0.7,1.3,1.6,2.4,1.9,2.4c0.9-0.3,1.9-2.6,2.6-4.6c1-2.6,1.7-6.5,1.9-7.6
			C318.4,112.3,318.2,112.5,318.1,112.6z"/>
		<g>
			<g>
				<g>
					<path class="st1" d="M321.5,108.2c-0.5-0.4-1.1-0.5-1.6-0.3c-1.3,0.4-3.2,1.3-4.6,3c-0.4,0.4-0.4,1.1,0.1,1.5
						c0.4,0.4,1.1,0.4,1.5-0.1c0.9-1,2.1-1.7,3-2.1c-0.3,2-0.9,5.3-1.8,8.4c-1.7,5.9-3.3,6.7-3.7,6.8c-0.7,0.2-1.5-0.7-2-1.4
						c-1.5-2-1.9-3-1.9-3.1c-0.1-0.4-0.4-0.7-0.8-0.8c-0.6-0.2-1.2,0.2-1.3,0.8c0,0-0.6,2-2.4,3.9c-1,1-1.5,0.8-1.7,0.7
						c-0.6-0.2-2.1-1.3-3.7-7c-0.9-3-1.5-6.3-1.7-8.2c0.9,0.4,2.1,1,3,2.1c0.4,0.4,1.1,0.5,1.5,0.1c0.4-0.4,0.5-1.1,0.1-1.5
						c-1.5-1.7-3.3-2.5-4.6-3c-0.5-0.2-1.1-0.1-1.6,0.3c-0.5,0.4-0.7,0.9-0.6,1.5c0.2,1.8,0.8,5.8,1.9,9.4c1.4,5,3.1,7.8,5.1,8.5
						c0.3,0.1,0.6,0.2,1,0.2c0.8,0,1.8-0.3,2.9-1.4c0.9-0.9,1.5-1.8,2-2.6c0.3,0.5,0.7,1,1.2,1.7c1.1,1.5,2.3,2.3,3.6,2.3
						c0.3,0,0.5,0,0.8-0.1c2-0.5,3.8-3.3,5.2-8.3c1.1-3.9,1.8-7.9,2-9.5C322.2,109.1,321.9,108.6,321.5,108.2z"/>
				</g>
				<g>
					<path class="st1" d="M309.3,119.6c-0.3,0-0.7-0.2-0.9-0.4l-1.5-2.1c-0.2-0.3-0.3-0.8-0.1-1.1c0.2-0.4,0.6-0.6,1-0.6h2.8
						c0.4,0,0.7,0.2,0.9,0.5c0.2,0.3,0.2,0.7,0,1.1l-1.3,2.1C310.1,119.4,309.7,119.6,309.3,119.6
						C309.3,119.6,309.3,119.6,309.3,119.6z"/>
				</g>
			</g>
		</g>
		<path class="st1" d="M314.1,128.6c-0.5,0-1-0.1-1.5-0.3c-1.2-0.5-2.4-1.9-3.1-2.8c-0.3,0.4-0.7,0.9-1.4,1.5
			c-1.5,1.4-3.1,1.8-4,1.6l-0.1,0c-0.8-0.1-2.6-0.3-4.6-3.8c-1.4-2.5-2.4-6.3-2.8-8.3c-0.6,3.8,0.8,8.4,3.6,11.2
			c3.9,3.9,9.4,3.4,14.5,0.9C314.6,128.6,314.4,128.6,314.1,128.6z"/>
		<path class="st1" d="M318.6,125.7c-0.3,0.4-0.6,0.8-0.9,1.2c2.7-1.8,3.8-5,3.7-8.2C320.5,121.9,319.7,123.8,318.6,125.7z"/>
	</g>
</g>
</svg>
