<?xml version="1.0" encoding="utf-8"?>
<!-- Generator: Adobe Illustrator 21.0.0, SVG Export Plug-In . SVG Version: 6.00 Build 0)  -->
<svg version="1.1" id="Logotypy" xmlns="http://www.w3.org/2000/svg" xmlns:xlink="http://www.w3.org/1999/xlink" x="0px" y="0px"
	 viewBox="0 0 114.1 24.7" style="enable-background:new 0 0 114.1 24.7;" xml:space="preserve">
<style type="text/css">
	.st0{fill:#EE740D;}
	.st1{fill:#3C3C3B;}
</style>
<g>
	<g>
		<path class="st0" d="M37.3,15.7c-0.1-0.1-0.2-0.2-0.3-0.2c-0.1-0.1-0.2-0.1-0.3-0.1c-0.1,0-0.1,0-0.2,0.1s-0.1,0.1-0.2,0.2
			c-0.2,0.3-0.4,0.5-0.5,0.8c-0.2,0.3-0.3,0.5-0.5,0.8c-0.2,0.4-0.4,0.7-0.5,0.9c-0.1,0.2-0.3,0.4-0.3,0.6c-0.1,0.2-0.2,0.3-0.2,0.5
			c-0.1,0.1-0.1,0.2-0.2,0.3c-0.1,0.1-0.1,0.2-0.2,0.2s-0.1,0.1-0.1,0.1s0,0.1,0,0.2v0.1c0,0.1-0.1,0.2-0.2,0.4s-0.2,0.4-0.4,0.7
			c-0.2,0.4-0.4,0.8-0.5,1s-0.2,0.4-0.1,0.4c0,0.1,0.1,0.2,0.2,0.2L33,23l0.2-0.3c0.1-0.1,0.2-0.3,0.3-0.5c0.1-0.2,0.2-0.4,0.2-0.5
			c0.1-0.2,0.1-0.3,0.1-0.3c0.1-0.1,0.1-0.2,0.2-0.2c0,0,0-0.1,0.1-0.2c0.1-0.1,0.1-0.2,0.2-0.3c0.1-0.1,0.2-0.2,0.2-0.3
			c0.1-0.1,0.2-0.1,0.2-0.1c0.1,0,0.2,0,0.4-0.1c0.2,0,0.4,0,0.6-0.1c0.2,0,0.4,0,0.6-0.1c0.2,0,0.3,0,0.4,0h0.1l-0.1,1.7
			c0,0.3,0,0.5,0,0.6s0,0.2,0,0.2v0.1c0,0.1,0.1,0.1,0.2,0.2c0.1,0,0.2,0.1,0.3,0.1c0.1,0,0.2,0,0.2-0.1v-0.1c0-0.1,0-0.1,0-0.2
			c0-0.3,0-0.6,0-1s0.1-0.8,0.1-1.2c0-0.4,0.1-0.8,0.1-1.2c0-0.4,0.1-0.7,0.1-1s0.1-0.6,0.1-0.8c0-0.3,0-0.5,0-0.7s0-0.3,0-0.4
			C37.5,15.9,37.4,15.8,37.3,15.7z M36.9,16.7c0,0.1,0,0.3,0,0.5s0,0.4-0.1,0.7c0,0.2,0,0.5-0.1,0.7c0,0.2,0,0.4-0.1,0.5
			c0,0.1,0,0.2,0,0.2s-0.1,0-0.1-0.1h-0.1c-0.1,0-0.1,0-0.3,0c-0.1,0-0.3,0.1-0.6,0.1c-0.1,0-0.2,0-0.3,0c-0.1,0-0.2,0-0.4,0.1
			c0,0,0-0.1,0-0.2s0.1-0.2,0.2-0.4c0.1-0.1,0.1-0.3,0.2-0.4s0.1-0.2,0.1-0.2s0.1-0.1,0.1-0.2c0.1-0.1,0.1-0.2,0.2-0.4
			c0.1-0.3,0.3-0.6,0.5-0.8c0.2-0.3,0.3-0.5,0.5-0.6c0.1-0.2,0.2-0.2,0.3-0.2C36.9,16.4,36.9,16.6,36.9,16.7z"/>
		<path class="st0" d="M40.6,16.4c0-0.1,0-0.2,0-0.2c0-0.1,0-0.2,0-0.2c0-0.1,0-0.1-0.1-0.2s-0.1-0.1-0.2-0.2h-0.1h-0.1
			c-0.1,0-0.1,0-0.1,0v0.1c0,0,0,0.1-0.1,0.3c-0.1,0.2-0.1,0.4-0.2,0.6s-0.2,0.5-0.3,0.7c-0.1,0.2-0.2,0.5-0.3,0.7
			c-0.1,0.2-0.1,0.3-0.2,0.4v0.1v0.1v0.1v0.1l-0.1,0.1c0,0.1,0,0.1,0,0.2v0.1c0,0,0,0.1-0.1,0.1c0,0,0,0.1-0.1,0.2
			c0,0.1-0.1,0.2-0.1,0.4c0,0.1-0.1,0.3-0.1,0.4s-0.1,0.2-0.1,0.3c0,0,0,0.1,0,0.2c0,0.1,0,0.2-0.1,0.2c-0.1,0.3-0.1,0.5-0.1,0.7
			s0.1,0.3,0.1,0.4c0.1,0.1,0.2,0.1,0.3,0.1c0.1,0,0.1-0.1,0.1-0.1c0-0.1,0-0.2,0-0.3c0-0.2,0-0.5,0.1-0.8s0.2-0.7,0.3-1.1
			c0.1-0.3,0.2-0.5,0.2-0.6s0-0.1,0.1-0.1v-0.1V19c0,0,0-0.1,0.1-0.2c0-0.1,0.1-0.2,0.1-0.3c0.1-0.1,0.1-0.2,0.2-0.3
			c0-0.1,0.1-0.2,0.1-0.2c0-0.1,0.1-0.2,0.1-0.2c0-0.1,0-0.1,0-0.1s0-0.1,0.1-0.2s0.1-0.3,0.2-0.4c0.1-0.3,0.2-0.5,0.3-0.6
			C40.6,16.6,40.6,16.5,40.6,16.4z"/>
		<path class="st0" d="M44.9,18.8c-0.1,0-0.2,0-0.3,0.1c-0.1,0.1-0.2,0.2-0.2,0.3c-0.1,0.2-0.1,0.3-0.2,0.4s-0.1,0.2-0.1,0.2
			c0,0.1,0,0.1-0.1,0.2c0,0.1-0.1,0.2-0.1,0.3c0,0.1-0.1,0.1-0.1,0.2s-0.1,0.2-0.2,0.3c-0.1,0.1-0.2,0.2-0.2,0.3
			c-0.2,0.2-0.3,0.4-0.4,0.6c-0.1,0.2-0.2,0.2-0.2,0.2s-0.1-0.1-0.1-0.3s0-0.4,0-0.7s0.1-0.5,0.1-0.8c0-0.1,0.1-0.2,0.1-0.3
			c0-0.1,0-0.2,0-0.2c0-0.1,0-0.1,0.1-0.2c0,0,0-0.1,0-0.2s0-0.1-0.1-0.2c0-0.1,0-0.1-0.1-0.1c0,0-0.1,0-0.2,0s-0.1,0-0.1,0
			s0,0.1-0.1,0.1c0,0.1-0.1,0.2-0.2,0.3c-0.1,0.1-0.1,0.2-0.2,0.3c0,0.1-0.1,0.2-0.3,0.5c-0.1,0.1-0.1,0.2-0.2,0.3
			c-0.1,0.1-0.1,0.1-0.1,0.2c0,0.1,0,0.1,0,0.1s0,0-0.1,0.1c0,0-0.1,0.1-0.1,0.2c0,0.1-0.1,0.2-0.2,0.2c-0.1,0.1-0.1,0.1-0.1,0.1
			c-0.1,0-0.1,0-0.2,0s-0.1-0.1,0-0.2c0-0.1,0-0.1,0-0.2c0-0.1,0-0.1,0-0.1v-0.1v-0.1v-0.1v-0.1c0-0.1,0.1-0.2,0.1-0.3
			c0-0.1,0.1-0.3,0.2-0.5s0.1-0.3,0.2-0.5s0.1-0.3,0.1-0.4s0-0.1,0-0.2c0,0-0.1-0.1-0.1-0.2c-0.1-0.1-0.1-0.1-0.2-0.1
			c0,0-0.1,0-0.2,0c-0.1,0.1-0.1,0.1-0.1,0.2v0.1c0,0.1,0,0.1,0,0.2s-0.1,0.2-0.1,0.4c-0.1,0.2-0.1,0.4-0.2,0.6s-0.1,0.5-0.2,0.8
			v0.1c0,0,0,0,0,0.1c0,0.1-0.1,0.1-0.1,0.3c0,0.1,0,0.3,0,0.4c0,0.2,0,0.3,0,0.4c0,0.1,0,0.2,0,0.2s0,0.1,0.1,0.1s0.1,0.1,0.2,0.1
			s0.1,0,0.2,0.1c0.1,0,0.1,0,0.2,0s0.2-0.1,0.4-0.3c0.2-0.2,0.3-0.4,0.5-0.7c0.1-0.2,0.2-0.3,0.4-0.5c0,0.2,0,0.4,0,0.5
			c0,0.2,0,0.4,0,0.6c0,0.2,0.1,0.3,0.1,0.4c0.1,0.1,0.1,0.2,0.2,0.2s0.2,0.1,0.3,0.1c0.1,0,0.2,0,0.3-0.1c0.1-0.1,0.2-0.1,0.3-0.2
			c0.1-0.1,0.2-0.1,0.2-0.2c0.1-0.1,0.1-0.1,0.1-0.1s0-0.1,0.1-0.1c0-0.1,0.1-0.1,0.1-0.2c0.2-0.2,0.3-0.5,0.5-0.8s0.3-0.6,0.4-0.9
			s0.2-0.6,0.2-0.8C45,18.9,45,18.9,44.9,18.8z"/>
		<path class="st0" d="M49.4,21.6c-0.1,0-0.2-0.1-0.3-0.1c-0.1-0.1-0.2-0.1-0.2-0.2c-0.1-0.2-0.2-0.3-0.2-0.5s0-0.5,0.1-0.7l0.2-0.5
			l-0.4-0.3c-0.1-0.1-0.1-0.1-0.2-0.2s-0.1-0.1-0.2-0.2l-0.1-0.1c-0.1-0.1-0.2-0.1-0.4-0.1c-0.2,0-0.3,0.1-0.5,0.2
			c-0.1,0-0.2,0.1-0.3,0.2c-0.1,0.1-0.2,0.2-0.3,0.3s-0.2,0.2-0.2,0.3c-0.1,0.1-0.1,0.1-0.1,0.2V20h-0.1v0.1c0,0-0.1,0.1-0.1,0.2
			c-0.1,0.1-0.1,0.2-0.2,0.2c-0.1,0.2-0.2,0.5-0.3,0.7c-0.1,0.2-0.2,0.4-0.2,0.6c0,0.2,0,0.2,0,0.3v0.1v0.1c0,0,0,0.1,0.1,0.1
			l0.1,0.1c0.2,0.2,0.5,0.1,0.9,0c0.4-0.2,0.8-0.5,1.3-1c0,0,0.1-0.1,0.2-0.2c0.1-0.1,0.1-0.2,0.2-0.2c0,0,0,0.1,0.1,0.2
			c0,0.1,0.1,0.2,0.1,0.2c0.2,0.3,0.4,0.6,0.6,0.7c0.2,0.1,0.4,0.2,0.6,0.2c0.1,0,0.1,0,0.1-0.1c0,0,0-0.1,0-0.2
			c0-0.1,0-0.1-0.1-0.2C49.5,21.6,49.5,21.6,49.4,21.6z M47.9,19.9c-0.1,0.2-0.3,0.4-0.6,0.7c-0.2,0.2-0.5,0.5-0.7,0.7
			c-0.2,0.1-0.3,0.2-0.5,0.3s-0.2,0.1-0.2,0c0.1-0.3,0.2-0.5,0.3-0.6c0.2-0.3,0.4-0.6,0.6-0.9s0.4-0.5,0.6-0.7s0.3-0.3,0.4-0.3
			s0.1,0,0.2,0.1s0.2,0.2,0.2,0.3L47.9,19.9z"/>
		<path class="st0" d="M53.3,19C53.3,19,53.2,19,53.3,19c-0.1,0-0.1,0-0.1,0s0,0-0.1-0.1c0,0-0.1,0-0.1-0.1c-0.1,0-0.1,0-0.1,0
			s-0.1,0-0.1,0.1s-0.1,0.1-0.1,0.2s-0.1,0.2-0.2,0.3s-0.1,0.2-0.2,0.3c-0.2,0.2-0.3,0.5-0.5,0.6c-0.1,0.2-0.3,0.4-0.4,0.5
			s-0.3,0.3-0.4,0.4c0,0,0-0.1,0-0.3s0.1-0.4,0.1-0.7c0,0,0-0.1,0-0.3c0-0.1,0-0.3,0.1-0.4c0-0.1,0-0.3,0-0.3c0-0.2,0-0.3-0.1-0.4
			c0-0.1-0.1-0.2-0.2-0.3c-0.1-0.1-0.2-0.2-0.2-0.2c-0.1,0-0.2,0-0.3,0c-0.1,0-0.1,0.1-0.1,0.2s0.1,0.1,0.1,0.2
			c0.1,0,0.1,0.1,0.1,0.2s0,0.2,0,0.3c0,0.1,0,0.3-0.1,0.6c-0.1,0.5-0.1,0.8-0.1,1.1c0,0.2,0,0.4,0,0.6c0,0.1,0.1,0.2,0.2,0.2
			s0.2,0.1,0.3,0.1c0.1,0,0.2,0,0.4-0.2c0.1-0.1,0.3-0.3,0.4-0.5c0.2-0.2,0.3-0.4,0.5-0.6c-0.1,0.2-0.2,0.5-0.3,0.8
			s-0.3,0.5-0.4,0.7s-0.2,0.3-0.2,0.4c-0.1,0.2-0.1,0.3-0.2,0.5s-0.1,0.3-0.2,0.4c-0.1,0.3-0.2,0.5-0.3,0.6c0,0.1,0,0.3,0,0.4
			c0,0,0,0.1,0.1,0.2c0,0.1,0.1,0.1,0.2,0.2c0.1,0,0.1,0.1,0.1,0c0.1,0,0.1,0,0.1,0c0-0.1,0.1-0.2,0.1-0.3s0.1-0.2,0.1-0.3
			c0.1-0.1,0.1-0.3,0.2-0.4c0.1-0.1,0.1-0.3,0.2-0.4c0.1-0.1,0.1-0.2,0.1-0.3s0.1-0.2,0.2-0.4s0.2-0.3,0.2-0.5
			c0.1-0.2,0.1-0.3,0.2-0.4c0.1-0.2,0.2-0.5,0.3-0.7c0.1-0.2,0.2-0.5,0.2-0.7c0-0.1,0.1-0.2,0.1-0.3c0-0.1,0.1-0.2,0.1-0.3
			c0-0.1,0-0.1,0-0.2v-0.1c0-0.1,0.1-0.2,0.1-0.3c0-0.1,0.1-0.2,0.1-0.3C53.3,19.1,53.3,19.1,53.3,19C53.3,19.1,53.3,19,53.3,19z"/>
		<path class="st0" d="M56.8,18.3c-0.1-0.1-0.1-0.1-0.2-0.2c-0.1,0-0.2-0.1-0.3-0.1s-0.2,0-0.4,0.1c-0.1,0-0.3,0.1-0.5,0.2
			s-0.4,0.2-0.6,0.4c-0.2,0.1-0.3,0.3-0.5,0.4c-0.1,0.1-0.2,0.2-0.3,0.3c-0.1,0.1-0.2,0.3-0.2,0.4s-0.1,0.2-0.1,0.3
			c0,0.1,0,0.2,0.1,0.4c0.1,0.1,0.1,0.2,0.2,0.2c0,0,0,0,0,0.1c0,0,0,0.1,0.1,0.2c0.1,0.1,0.2,0.2,0.4,0.3c0.1,0,0.1,0.1,0.2,0.1
			s0.1,0.1,0.1,0.1h0.1H55l0.1,0.1l0,0c0,0-0.1,0.1-0.2,0.1s-0.2,0-0.4,0.1c-0.1,0-0.2,0-0.3,0c-0.2,0-0.4,0-0.5,0s-0.2,0-0.2,0v0.1
			c0,0.1,0.1,0.1,0.2,0.2c0.1,0.1,0.2,0.2,0.4,0.2c0.1,0,0.2,0,0.4,0c0.2,0,0.3,0,0.5,0s0.3,0,0.3-0.1c0.2-0.1,0.3-0.2,0.4-0.3
			c0-0.1,0-0.3-0.1-0.5c0-0.1-0.1-0.1-0.1-0.2c-0.1-0.1-0.2-0.2-0.3-0.3c-0.1-0.1-0.3-0.3-0.6-0.5c-0.1-0.1-0.2-0.2-0.2-0.2
			s0-0.1,0-0.2s0-0.1,0-0.2s0-0.1,0-0.1s0.1-0.1,0.1-0.2c0.1-0.1,0.1-0.2,0.2-0.3c0.1-0.1,0.1-0.2,0.2-0.2c0-0.1,0.1-0.1,0.1,0
			c0,0,0,0,0.1,0c0,0,0,0,0.1-0.1s0.1-0.1,0.3-0.2c0.1-0.1,0.3-0.1,0.4-0.2s0.3-0.1,0.4-0.2c0.1,0,0.1,0,0.1,0s0,0,0,0.1
			c0,0,0,0.1-0.1,0.2c0,0.1-0.1,0.2-0.2,0.3C56,19,56,19,56,19l-0.1,0.1c0,0,0,0.1,0.1,0.1c0,0,0,0,0.1,0c0,0,0,0,0,0.1
			s0.1,0.1,0.2,0.1s0.2-0.1,0.3-0.2c0.1-0.1,0.2-0.2,0.2-0.2s0-0.1,0.1-0.1c0,0,0.1,0,0.1-0.1s0-0.2,0.1-0.3c0-0.1,0-0.2,0-0.3
			c0,0,0-0.1-0.1-0.2C56.9,18.4,56.9,18.4,56.8,18.3z"/>
		<path class="st0" d="M62.6,18.5c-0.1,0-0.2,0-0.3,0c-0.1,0-0.2,0-0.3,0c-0.1,0-0.2,0-0.2,0c-0.1,0-0.1,0-0.1,0
			c0.1-0.1,0.1-0.2,0.1-0.3c0.1-0.2,0.2-0.4,0.3-0.5c0.1-0.1,0.1-0.2,0.1-0.3c0-0.1,0-0.1,0-0.1s0-0.1-0.1-0.1
			C62,17.1,62,17,61.9,17s-0.1,0-0.3,0.1c0,0-0.1,0.1-0.2,0.3c-0.1,0.2-0.2,0.3-0.2,0.5c-0.1,0.2-0.2,0.4-0.2,0.5
			c-0.1,0.1-0.2,0.1-0.3,0.2c-0.1,0-0.2,0.1-0.3,0.1c-0.1,0-0.2,0-0.3,0c-0.1,0-0.1,0-0.2,0.1c0,0.1,0,0.1,0,0.1V19c0,0,0,0,0,0.1
			v0.1c0,0,0.1,0,0.2,0s0.2,0,0.3,0c0.1,0,0.1,0.1,0.1,0.2c0,0,0,0.1-0.1,0.3c0,0.1-0.1,0.3-0.1,0.5s-0.1,0.4-0.1,0.5
			c0,0.2,0,0.3,0,0.4c0,0.2,0,0.4,0,0.5s0,0.2,0.1,0.3c0,0.1,0.1,0.2,0.2,0.3s0.2,0.2,0.3,0.2c0.1,0,0.1,0.1,0.2,0.1s0.2,0,0.4,0
			c0.1,0,0.3-0.1,0.4-0.2c0.1-0.1,0.2-0.2,0.3-0.3c0.1-0.1,0.1-0.2,0.1-0.3s-0.1-0.1-0.1-0.1c-0.1,0-0.2,0.1-0.3,0.2
			c-0.1,0.1-0.3,0.2-0.4,0.2c-0.2,0-0.3,0-0.4,0c-0.1-0.1-0.1-0.2-0.1-0.4s0-0.4,0-0.6c0-0.2,0.1-0.5,0.1-0.7c0-0.1,0.1-0.3,0.1-0.4
			c0-0.2,0.1-0.3,0.1-0.4s0.1-0.2,0.1-0.2s0.1,0,0.2,0s0.2,0,0.4,0c0.1,0,0.3,0,0.4,0s0.2,0,0.3,0c0.2,0,0.3,0,0.4,0
			c0,0,0.1-0.1,0-0.1c0-0.1,0-0.2-0.1-0.3C62.9,18.5,62.8,18.5,62.6,18.5z"/>
		<path class="st0" d="M66.5,19.7c0.1-0.1,0.2-0.2,0.3-0.2c0.1-0.1,0.1-0.1,0-0.1h-0.1v-0.1c0,0-0.1-0.1-0.2-0.1s-0.1,0-0.2,0
			s-0.1,0-0.1,0s-0.1,0.1-0.3,0.1c-0.1,0-0.3,0.1-0.4,0.1s-0.2,0-0.2,0v-0.1h0.1c0.2-0.1,0.2-0.2,0.1-0.4c-0.1-0.1-0.1-0.2-0.3-0.2
			c-0.1,0-0.3,0-0.4,0.1c-0.2,0.1-0.3,0.2-0.5,0.4c-0.2,0.2-0.3,0.4-0.5,0.7c-0.1,0.3-0.3,0.5-0.4,0.8c-0.1,0.3-0.2,0.5-0.2,0.8
			c0,0.1,0,0.1,0,0.2c0,0.1,0.1,0.2,0.2,0.3s0.2,0.2,0.3,0.2c0.1,0.1,0.1,0.1,0.2,0.1c0,0,0.1,0,0.3,0c0.2,0,0.4-0.1,0.6-0.2
			c0.2-0.1,0.4-0.2,0.6-0.4s0.3-0.3,0.5-0.5c0.1-0.2,0.2-0.4,0.3-0.5c0-0.2,0-0.3,0-0.5c0-0.1,0-0.1,0-0.2
			C66.3,19.8,66.4,19.8,66.5,19.7z M65.7,20.4c-0.1,0.1-0.2,0.3-0.3,0.4c-0.1,0.2-0.2,0.3-0.3,0.4c-0.1,0.1-0.1,0.1-0.2,0.2h-0.1
			c0,0-0.1,0-0.1,0.1l-0.1,0.1c0,0-0.1,0-0.2,0.1c-0.1,0-0.1,0-0.1,0c-0.1,0-0.1,0-0.2-0.1S64,21.5,64,21.4c0-0.1,0.1-0.3,0.1-0.5
			c0.1-0.2,0.2-0.5,0.3-0.7c0.1-0.2,0.2-0.4,0.4-0.5l0.2-0.2l0.2,0.2c0.1,0.1,0.1,0.1,0.2,0.2c0.1,0,0.1,0.1,0.2,0.1
			c0,0,0.1,0,0.1,0.1c0,0,0.1,0,0.1,0.1C65.8,20.1,65.8,20.3,65.7,20.4z"/>
		<path class="st0" d="M70.1,19.1c-0.1-0.2-0.1-0.3-0.2-0.3c0-0.1-0.1-0.1-0.2-0.2s-0.1-0.1-0.2-0.1s-0.1,0-0.2,0s-0.3,0-0.5,0.1
			s-0.4,0.2-0.6,0.3c-0.2,0.1-0.4,0.3-0.5,0.4c-0.2,0.2-0.3,0.4-0.4,0.6s-0.2,0.4-0.2,0.5s0,0.2,0,0.2c0,0.1,0,0.1,0.1,0.1
			s0.1,0.1,0.1,0.2c0.1,0.1,0.2,0.2,0.4,0.2c0.1,0,0.2,0.1,0.3,0c0.1,0,0.2,0,0.2,0c0.1,0,0.1,0,0.2-0.1c0.1,0,0.2-0.1,0.3-0.1
			c0.1,0,0.1-0.1,0.2-0.1H69c0.1-0.1,0.1-0.1,0.1,0c0,0.1,0,0.2,0,0.3c0,0.2-0.1,0.4-0.2,0.7s-0.1,0.6-0.2,0.8v0.1
			c-0.1,0.2-0.1,0.4-0.2,0.6c-0.1,0.1-0.2,0.3-0.3,0.4c-0.1,0-0.1,0.1-0.2,0.1s-0.2,0-0.3-0.1c-0.1,0-0.1-0.1-0.2-0.1
			c-0.1-0.1-0.2-0.1-0.2-0.2c0,0,0-0.1-0.1-0.1h-0.1H67c0,0,0,0.1,0,0.2c0,0.1,0.1,0.2,0.1,0.3c0.1,0.1,0.1,0.2,0.2,0.2
			c0.1,0.1,0.3,0.2,0.4,0.3c0.2,0.1,0.3,0.1,0.5,0.1s0.3,0,0.4-0.1s0.3-0.3,0.4-0.6s0.3-0.8,0.4-1.4c0-0.2,0-0.3,0.1-0.4
			c0-0.1,0-0.1,0-0.2v-0.1v-0.2c0,0,0,0,0-0.1s0-0.1,0.1-0.2V21c0-0.1,0-0.1,0-0.2c0-0.1,0-0.1,0.1-0.1c0,0,0,0,0-0.1c0,0,0,0,0-0.1
			c0,0,0,0,0-0.1v-0.1v-0.1v-0.1c0-0.1,0-0.1,0.1-0.2l0.1-0.1H70l0,0l0,0c0,0,0.1-0.1,0.1-0.2s0-0.2,0-0.3c0-0.1,0-0.2,0-0.3
			C70.1,19.3,70.1,19.2,70.1,19.1z M69.5,19.5c0,0.2-0.1,0.3-0.2,0.5s-0.2,0.3-0.4,0.4c-0.3,0.2-0.5,0.3-0.7,0.4s-0.4,0-0.6,0
			c0,0,0-0.1,0-0.2c0-0.1,0.1-0.2,0.2-0.4c0.1-0.1,0.1-0.2,0.2-0.3c0,0,0,0,0.1-0.1c0,0,0,0,0-0.1c0.1,0,0.1-0.1,0.2-0.1l0.1-0.1
			c0.2-0.1,0.4-0.2,0.6-0.3c0.2-0.1,0.3-0.1,0.5-0.1c0.1,0,0.1,0,0.1,0.1C69.5,19.3,69.5,19.3,69.5,19.5z"/>
		<path class="st0" d="M73.9,18.9c-0.1-0.1-0.2-0.2-0.2-0.2c-0.1-0.1-0.2-0.1-0.3-0.1c-0.1,0-0.1,0-0.2,0s-0.2,0-0.2,0.1
			c-0.1,0-0.1,0-0.2,0.1c-0.1,0-0.2,0.1-0.3,0.2c-0.1,0.1-0.2,0.2-0.3,0.3c-0.1,0.1-0.2,0.2-0.3,0.3c-0.1,0.1-0.1,0.2-0.2,0.3
			c-0.1,0-0.1,0-0.1,0s0,0-0.1-0.1h-0.1h-0.1h-0.1c0,0,0,0-0.1,0.1c0,0.1,0,0.1,0,0.2c0,0,0,0.1,0.1,0.1s0.1,0.1,0.1,0.1
			c0.1,0.1,0.1,0.1,0.1,0.2s0,0.2,0,0.4c0,0.4,0,0.7,0,0.9c0.1,0.2,0.3,0.4,0.5,0.5s0.3,0.1,0.5,0.1s0.4-0.1,0.6-0.2
			c0.1,0,0.1-0.1,0.2-0.2c0.1-0.1,0.2-0.1,0.2-0.2c0.1-0.1,0.1-0.1,0.1-0.2c0.1-0.1,0.1-0.2,0.1-0.3s0-0.1-0.1-0.2
			c-0.1,0-0.1,0-0.2,0s-0.1,0-0.1,0.1c-0.1,0.1-0.2,0.2-0.4,0.4c-0.1,0.1-0.3,0.2-0.4,0.3c-0.2,0-0.3,0-0.4,0
			c-0.1-0.1-0.2-0.1-0.2-0.2v-0.1c0-0.1,0-0.2,0-0.3c0-0.2,0-0.3,0.1-0.5c0-0.1,0.1-0.1,0.1-0.1s0.1,0,0.2,0s0.3,0,0.4,0
			s0.3,0,0.4-0.1c0.1,0,0.2-0.1,0.3-0.2c0.1-0.1,0.2-0.2,0.3-0.3c0.1-0.1,0.2-0.2,0.2-0.3c0-0.1,0.1-0.2,0.1-0.3c0-0.1,0-0.2,0-0.3
			C74.1,19,74,18.9,73.9,18.9z M73.5,19.6c-0.1,0.2-0.2,0.3-0.3,0.4c-0.1,0.1-0.2,0.1-0.3,0.1c-0.1,0-0.2,0-0.4,0.1c0,0-0.1,0-0.2,0
			s-0.1,0-0.1-0.1V20c0.1-0.1,0.1-0.2,0.2-0.3c0.1-0.1,0.2-0.2,0.3-0.3c0.1-0.1,0.2-0.1,0.2-0.2c0.1-0.1,0.2-0.1,0.2-0.1
			c0.1,0,0.2,0,0.2,0.1c0,0,0,0.1,0.1,0.2C73.6,19.4,73.5,19.5,73.5,19.6z"/>
		<path class="st0" d="M77.4,18.5c-0.1,0-0.2,0-0.3,0c-0.1,0-0.2,0-0.3,0c-0.1,0-0.2,0-0.2,0c-0.1,0-0.1,0-0.1,0
			c0.1-0.1,0.1-0.2,0.1-0.3c0.1-0.2,0.2-0.4,0.3-0.5c0.1-0.1,0.1-0.2,0.1-0.3c0-0.1,0-0.1,0-0.1s0-0.1-0.1-0.1
			c-0.1-0.1-0.1-0.2-0.2-0.2s-0.1,0-0.3,0.1c0,0-0.1,0.1-0.2,0.3c-0.1,0.2-0.2,0.3-0.2,0.5c-0.1,0.2-0.2,0.4-0.2,0.5
			c-0.1,0.1-0.2,0.1-0.3,0.2c-0.1,0-0.2,0.1-0.3,0.1c-0.1,0-0.2,0-0.3,0c-0.1,0-0.1,0-0.2,0.1c0,0.1,0,0.1,0,0.1V19c0,0,0,0,0,0.1
			v0.1c0,0,0.1,0,0.2,0s0.2,0,0.3,0c0.1,0,0.1,0.1,0.1,0.2c0,0,0,0.1-0.1,0.3c0,0.1-0.1,0.3-0.1,0.5S75,20.6,75,20.7
			c0,0.2,0,0.3,0,0.4c0,0.2,0,0.4,0,0.5s0,0.2,0.1,0.3c0,0.1,0.1,0.2,0.2,0.3s0.2,0.2,0.3,0.2s0.1,0.1,0.2,0.1s0.2,0,0.4,0
			c0.1,0,0.3-0.1,0.4-0.2c0.1-0.1,0.2-0.2,0.3-0.3c0.1-0.1,0.1-0.2,0.1-0.3s-0.1-0.1-0.1-0.1c-0.1,0-0.2,0.1-0.3,0.2
			c-0.1,0.1-0.3,0.2-0.4,0.2c-0.2,0-0.3,0-0.4,0c-0.1-0.1-0.1-0.2-0.1-0.4s0-0.4,0-0.6c0-0.2,0.1-0.5,0.1-0.7c0-0.1,0.1-0.3,0.1-0.4
			c0-0.2,0.1-0.3,0.1-0.4s0.1-0.2,0.1-0.2s0.1,0,0.2,0s0.2,0,0.4,0c0.1,0,0.3,0,0.4,0s0.2,0,0.3,0c0.2,0,0.3,0,0.4,0s0.1-0.1,0-0.1
			c0-0.1,0-0.2-0.1-0.3C77.7,18.5,77.6,18.5,77.4,18.5z"/>
		<path class="st0" d="M81.8,21.9c-0.1,0-0.1-0.1-0.1-0.1s0-0.1,0-0.2c0-0.1,0-0.3,0.1-0.5c0-0.3,0-0.6,0.1-0.7c0-0.2,0-0.3,0-0.3
			c0-0.1,0-0.2-0.1-0.3c0-0.1-0.1-0.2-0.1-0.3c-0.1-0.1-0.1-0.2-0.2-0.2c-0.1-0.1-0.1-0.1-0.2-0.1s-0.3,0.1-0.5,0.2
			c-0.2,0.2-0.4,0.3-0.6,0.6c-0.2,0.2-0.4,0.4-0.6,0.6c-0.1,0.2-0.2,0.2-0.3,0.2c0-0.1,0-0.2,0.1-0.3c0-0.2,0.1-0.4,0.2-0.6
			s0.2-0.4,0.3-0.7c0.1-0.2,0.2-0.4,0.3-0.6c0.1-0.2,0.1-0.3,0.2-0.3c0.1-0.2,0.1-0.3,0.2-0.6c0.1-0.2,0.1-0.4,0.2-0.5
			c0.1-0.3,0.2-0.5,0.2-0.6s0-0.3,0-0.4c0,0,0-0.1-0.1-0.2c-0.1-0.1-0.1-0.1-0.2-0.2c-0.1,0-0.1-0.1-0.1,0c-0.1,0-0.1,0-0.1,0
			s0,0.1-0.1,0.1c0,0.1,0,0.1,0,0.2c0,0.1-0.1,0.2-0.1,0.3c-0.1,0.2-0.1,0.3-0.2,0.5s-0.1,0.3-0.2,0.5c-0.1,0.1-0.1,0.2-0.1,0.3
			c0,0.1-0.1,0.2-0.1,0.4c-0.1,0.2-0.1,0.3-0.2,0.5s-0.1,0.3-0.1,0.4c-0.1,0.2-0.1,0.4-0.2,0.7C79.1,20,79,20.2,79,20.4
			c0,0.1-0.1,0.2-0.1,0.3s-0.1,0.3-0.1,0.5c-0.1,0.2-0.1,0.3-0.1,0.4c0,0.1-0.1,0.2-0.1,0.2s0,0.1,0.1,0.1c0.1,0.1,0.1,0.1,0.2,0.1
			s0.2,0.1,0.2,0.1s0.1,0,0.1-0.1c0.1-0.1,0.2-0.2,0.3-0.4c0.3-0.3,0.5-0.6,0.8-0.8c0.3-0.3,0.5-0.5,0.7-0.6
			c0.2-0.2,0.3-0.2,0.4-0.2c0,0,0.1,0.1,0.1,0.2c0,0.2,0,0.4-0.1,0.6c0,0.1,0,0.2,0,0.3c0,0.2,0,0.3,0,0.4c0,0.2,0,0.3,0.1,0.4
			c0,0.1,0.1,0.2,0.2,0.3s0.2,0.2,0.3,0.2s0.2,0,0.3,0c0.1-0.1,0.1-0.1,0.1-0.2C81.9,22.1,81.9,22,81.8,21.9z"/>
		<path class="st0" d="M85.7,18.8c0-0.1-0.1-0.1-0.2-0.2c-0.1,0-0.2-0.1-0.4-0.1c-0.2,0-0.3,0-0.3,0c-0.1,0-0.2,0-0.3,0.1
			c-0.2,0.1-0.4,0.2-0.7,0.5s-0.4,0.5-0.6,0.7c-0.2,0.3-0.2,0.6-0.3,0.8c0,0.3,0,0.6,0,0.8s0.1,0.4,0.2,0.5c0.1,0.2,0.3,0.3,0.5,0.4
			c0.2,0.1,0.4,0.1,0.6,0.1s0.4-0.1,0.5-0.2c0.2-0.1,0.3-0.2,0.4-0.3s0.2-0.2,0.2-0.3s0-0.1,0-0.1s-0.1,0-0.1-0.1h-0.1H85l-0.1,0.1
			c-0.1,0.1-0.1,0.1-0.1,0.1s0,0-0.1,0c0,0-0.1,0.1-0.2,0.1c-0.1,0.1-0.2,0.1-0.3,0.1c-0.1,0-0.2,0-0.3-0.1c-0.1,0-0.2-0.1-0.3-0.2
			c-0.1-0.1-0.1-0.3-0.1-0.6s0.1-0.5,0.1-0.5c0-0.1,0.1-0.1,0.3,0c0.1,0.1,0.3,0.1,0.5,0.1s0.4,0,0.5-0.1c0.3-0.1,0.5-0.3,0.7-0.5
			s0.3-0.4,0.3-0.6c0-0.1,0-0.2-0.1-0.3C85.8,19,85.8,18.9,85.7,18.8z M85.2,19.6c-0.1,0.1-0.1,0.2-0.2,0.2
			c-0.1,0.1-0.2,0.1-0.2,0.2c-0.1,0-0.2,0.1-0.3,0.1c-0.1,0-0.2,0-0.3,0c-0.1,0-0.2,0-0.2-0.1c0,0,0-0.1,0.1-0.1
			c0.1-0.1,0.1-0.2,0.2-0.3c0.1-0.1,0.2-0.2,0.3-0.3c0.1-0.1,0.2-0.1,0.3-0.2c0.2,0,0.3,0,0.4,0c0.1,0.1,0.1,0.1,0.1,0.2
			C85.3,19.4,85.3,19.5,85.2,19.6z"/>
		<path class="st0" d="M90,19.3c-0.1-0.1-0.1-0.1-0.1-0.2s-0.1-0.2-0.3-0.2c-0.2,0-0.3,0-0.5,0.1c0,0-0.1,0-0.2,0.1
			c-0.1,0-0.1,0.1-0.2,0.1c0,0-0.1,0.1-0.2,0.1c-0.1,0.1-0.2,0.2-0.4,0.3c-0.1,0.1-0.2,0.2-0.4,0.3c-0.1,0.1-0.2,0.2-0.2,0.3
			c-0.1,0-0.1,0-0.1,0s0-0.1,0.1-0.2c0-0.1,0.1-0.2,0.2-0.4c0.2-0.3,0.3-0.6,0.3-0.7c0.1-0.2,0-0.3,0-0.3c-0.1-0.1-0.1-0.1-0.2-0.1
			s-0.1,0-0.2,0.1s-0.2,0.3-0.3,0.5c-0.1,0.2-0.2,0.4-0.3,0.7s-0.2,0.5-0.2,0.7c-0.1,0.2-0.1,0.3-0.1,0.4c0,0.2-0.1,0.4-0.1,0.5
			c0,0.2-0.1,0.3-0.1,0.5c0,0.1,0,0.2,0,0.3l0.1,0.1c0.1,0.1,0.2,0.2,0.3,0.2c0.1,0,0.1-0.1,0.2-0.2c0-0.1,0.1-0.2,0.1-0.3
			c0,0,0-0.1,0-0.2c0-0.1,0.1-0.2,0.1-0.3s0.1-0.2,0.1-0.2c0.1-0.1,0.1-0.2,0.2-0.3c0-0.1,0.1-0.1,0.1-0.2c0.2-0.2,0.5-0.4,0.7-0.6
			c0.2-0.1,0.5-0.3,0.8-0.5c0.1,0,0.2-0.1,0.3-0.1c0.1,0,0.2,0,0.2-0.1c0.1,0,0.2,0,0.3,0C90,19.4,90,19.4,90,19.3L90,19.3z"/>
	</g>
	<g>
		<path class="st1" d="M45.4,1.5c-0.2-0.1-0.5-0.2-0.8-0.2s-0.7,0.1-1,0.2c-0.1,1-0.3,2-0.4,2.9s-0.3,1.8-0.5,2.8
			c-0.2,0.9-0.3,1.9-0.5,2.9h-0.1c-0.2-0.6-0.3-1.2-0.5-1.8c-0.2-0.6-0.4-1.2-0.6-1.8c-0.2-0.6-0.4-1.3-0.7-2.1
			c0-0.2-0.2-0.4-0.4-0.5c-0.2-0.1-0.5-0.2-0.9-0.2c-0.2,0-0.4,0-0.6,0.1S38,3.9,37.9,4c-0.2,0.7-0.3,1.3-0.5,1.9
			c-0.2,0.5-0.3,1-0.4,1.5s-0.3,0.9-0.4,1.3s-0.3,0.9-0.4,1.4h-0.1C36,9.6,35.9,9,35.8,8.5c-0.1-0.5-0.2-1.1-0.3-1.7
			c-0.1-0.6-0.2-1.3-0.4-2c-0.1-0.7-0.3-1.6-0.5-2.5c-0.1-0.3-0.2-0.6-0.4-0.7c-0.2-0.1-0.5-0.2-0.8-0.2c-0.2,0-0.5,0-0.7,0.1
			s-0.4,0.2-0.5,0.3c0.1,0.6,0.2,1.2,0.3,2c0.1,0.7,0.3,1.5,0.5,2.3s0.3,1.5,0.5,2.3c0.2,0.7,0.3,1.4,0.5,1.9c0.2,0.6,0.3,1,0.4,1.2
			s0.3,0.3,0.6,0.5c0.3,0.1,0.6,0.2,1,0.2c0.3,0,0.6,0,0.9-0.1s0.4-0.2,0.6-0.3c0.1-0.4,0.3-0.9,0.5-1.4c0.2-0.6,0.4-1.2,0.6-1.9
			c0.2-0.7,0.4-1.3,0.5-2c0.2,0.7,0.4,1.3,0.6,1.9s0.4,1.2,0.5,1.8c0.2,0.5,0.3,1,0.5,1.3c0.1,0.2,0.2,0.4,0.5,0.5s0.6,0.2,1,0.2
			c0.3,0,0.6,0,0.9-0.1s0.5-0.2,0.6-0.3c0.1-0.4,0.3-0.8,0.4-1.3s0.3-1.1,0.4-1.7s0.3-1.3,0.4-1.9s0.3-1.3,0.3-1.9
			c0.1-0.6,0.2-1.1,0.2-1.6c0.1-0.5,0.1-0.8,0.1-1C45.8,1.8,45.7,1.6,45.4,1.5z"/>
		<path class="st1" d="M54.1,3.8c-0.6-0.4-1.4-0.5-2.2-0.5c-0.9,0-1.6,0.2-2.2,0.5c-0.6,0.4-1.1,0.9-1.5,1.5
			c-0.4,0.7-0.5,1.4-0.5,2.3s0.2,1.7,0.5,2.3c0.4,0.7,0.9,1.2,1.5,1.5c0.6,0.4,1.4,0.5,2.3,0.5s1.6-0.2,2.2-0.5
			c0.6-0.4,1.1-0.9,1.5-1.5c0.3-0.7,0.5-1.4,0.5-2.3S56,5.9,55.7,5.3C55.2,4.6,54.7,4.1,54.1,3.8z M53.4,9.6
			c-0.4,0.5-0.9,0.7-1.5,0.7c-0.7,0-1.2-0.2-1.5-0.7c-0.4-0.5-0.5-1.1-0.5-2c0-0.8,0.2-1.5,0.6-2s0.9-0.7,1.5-0.7s1.1,0.2,1.5,0.7
			S54,6.7,54,7.5C53.9,8.4,53.7,9.1,53.4,9.6z"/>
		<path class="st1" d="M64.5,3.8c-0.6-0.4-1.4-0.5-2.2-0.5c-0.9,0-1.6,0.2-2.2,0.5c-0.6,0.4-1.1,0.9-1.5,1.5
			c-0.4,0.7-0.5,1.4-0.5,2.3s0.2,1.7,0.5,2.3c0.4,0.7,0.9,1.2,1.5,1.5c0.6,0.4,1.4,0.5,2.3,0.5s1.6-0.2,2.2-0.5
			c0.6-0.4,1.1-0.9,1.5-1.5c0.3-0.7,0.5-1.4,0.5-2.3s-0.2-1.7-0.5-2.3C65.6,4.6,65.1,4.1,64.5,3.8z M63.7,9.6
			c-0.4,0.5-0.9,0.7-1.5,0.7c-0.7,0-1.2-0.2-1.5-0.7c-0.4-0.5-0.5-1.1-0.5-2c0-0.8,0.2-1.5,0.6-2s0.9-0.7,1.5-0.7s1.1,0.2,1.5,0.7
			s0.5,1.1,0.5,1.9C64.3,8.4,64.1,9.1,63.7,9.6z"/>
		<path class="st1" d="M75.2,0.2c-0.2,0-0.4,0-0.6,0.1c-0.2,0-0.3,0.1-0.4,0.1v3.2c-0.1-0.1-0.3-0.1-0.5-0.2
			c-0.4-0.1-0.7-0.2-1.2-0.2c-0.8,0-1.5,0.2-2.1,0.5s-1.2,0.8-1.5,1.4c-0.4,0.7-0.6,1.5-0.6,2.5s0.2,1.8,0.6,2.5
			c0.4,0.6,0.9,1.1,1.6,1.4S72,12,72.9,12c0.6,0,1.2-0.1,1.7-0.2s0.9-0.3,1.1-0.5s0.4-0.3,0.5-0.5s0.2-0.4,0.2-0.6V4.9V4.5V1.3
			c0-0.4-0.1-0.6-0.3-0.8C75.9,0.3,75.6,0.2,75.2,0.2z M73.7,10.2c-0.2,0.1-0.5,0.1-0.8,0.1c-0.7,0-1.3-0.2-1.7-0.6
			c-0.4-0.4-0.6-1.1-0.6-2c0-0.6,0.1-1.2,0.3-1.6c0.2-0.4,0.5-0.7,0.8-0.9C72,5,72.4,4.9,72.9,4.9c0.4,0,0.7,0.1,1,0.2
			c0.1,0.1,0.2,0.1,0.3,0.2v4.6C74.1,10,73.9,10.1,73.7,10.2z"/>
		<path class="st1" d="M83.1,6.6h-4c-0.2,0-0.4,0.1-0.6,0.2s-0.2,0.4-0.2,0.7c0,0.2,0,0.3,0.1,0.5c0,0.1,0.1,0.3,0.2,0.4h4
			c0.3,0,0.5-0.1,0.6-0.2c0.2-0.2,0.2-0.4,0.2-0.7c0-0.2,0-0.3-0.1-0.5C83.2,6.8,83.1,6.7,83.1,6.6z"/>
		<path class="st1" d="M93.3,10.1h-5.4l4.9-6.4c0.2-0.2,0.3-0.4,0.4-0.6s0.1-0.4,0.1-0.7c0-0.5-0.2-0.8-0.5-1.1h-0.4h-0.3h-6
			c-0.3,0-0.5,0.1-0.6,0.2c-0.1,0.2-0.2,0.4-0.2,0.7c0,0.2,0,0.4,0.1,0.5c0.1,0.2,0.1,0.3,0.2,0.4h5.1l-5,6.4
			c-0.2,0.2-0.3,0.4-0.4,0.6s-0.2,0.4-0.2,0.7c0,0.2,0,0.4,0.1,0.6s0.2,0.4,0.4,0.5h0.3h0.5h6.2c0.2,0,0.4-0.1,0.6-0.2
			c0.1-0.2,0.2-0.4,0.2-0.7c0-0.2,0-0.4-0.1-0.5C93.4,10.3,93.3,10.2,93.3,10.1z"/>
		<path class="st1" d="M101.6,3.8c-0.6-0.4-1.4-0.5-2.2-0.5c-0.9,0-1.6,0.2-2.2,0.5c-0.6,0.4-1.1,0.9-1.5,1.5
			c-0.4,0.7-0.5,1.4-0.5,2.3s0.2,1.7,0.5,2.3c0.4,0.7,0.9,1.2,1.5,1.5c0.6,0.4,1.4,0.5,2.3,0.5s1.6-0.2,2.2-0.5
			c0.6-0.4,1.1-0.9,1.5-1.5c0.3-0.7,0.5-1.4,0.5-2.3s-0.2-1.7-0.5-2.3C102.8,4.6,102.3,4.1,101.6,3.8z M100.9,9.6
			c-0.4,0.5-0.9,0.7-1.5,0.7c-0.7,0-1.2-0.2-1.5-0.7c-0.4-0.5-0.5-1.1-0.5-2c0-0.8,0.2-1.5,0.6-2s0.9-0.7,1.5-0.7s1.1,0.2,1.5,0.7
			s0.5,1.1,0.5,1.9C101.5,8.4,101.3,9.1,100.9,9.6z"/>
		<path class="st1" d="M113.5,5.3c-0.4-0.7-0.9-1.2-1.5-1.5c-0.6-0.4-1.4-0.5-2.2-0.5c-0.9,0-1.6,0.2-2.2,0.5
			c-0.6,0.4-1.1,0.9-1.5,1.5c-0.4,0.7-0.5,1.4-0.5,2.3s0.2,1.7,0.5,2.3c0.4,0.7,0.9,1.2,1.5,1.5c0.6,0.4,1.4,0.5,2.3,0.5
			s1.6-0.2,2.2-0.5c0.6-0.4,1.1-0.9,1.5-1.5c0.3-0.7,0.5-1.4,0.5-2.3C114,6.7,113.9,5.9,113.5,5.3z M111.3,9.6
			c-0.4,0.5-0.9,0.7-1.5,0.7c-0.7,0-1.2-0.2-1.5-0.7c-0.4-0.5-0.5-1.1-0.5-2c0-0.8,0.2-1.5,0.6-2s0.9-0.7,1.5-0.7s1.1,0.2,1.5,0.7
			s0.5,1.1,0.5,1.9C111.8,8.4,111.7,9.1,111.3,9.6z"/>
	</g>
	<g>
		<path class="st0" d="M21.6,5.3c-0.6,0.6-1.3,1-1.9,1c-0.5,0-1-0.2-1.4-0.5c-0.5-0.4-0.8-1.1-0.7-1.8c0.1-1,0.9-1.9,2-2.5
			c-3.7-2.4-8-1.6-12.9,0.6C6.9,2.2,7,2.4,7.1,2.4c0,0,1.4,1.3,1.2,2.5C8.2,5.4,7.9,5.8,7.4,6C5.8,6.7,4.9,5.8,4.5,5.4L4.4,5.3
			C4.2,5.2,3.9,4.9,3.6,4.7c0.2,1.3,0.7,3.8,1.3,6c0.8,3.3,2,5.3,2.4,6c0.3,0.5,0.5,0.6,0.6,0.6s0.3-0.1,0.4-0.1
			c0.6-0.5,1.4-1.1,2-2.6c0.3-0.8,0.7-1.6,1.2-2.1c-0.4-0.3-0.8-0.7-0.9-0.9c-0.2-0.2-1.3-1.6-1.3-2.9c0-0.4,0.1-0.7,0.4-1
			c0.7-0.7,2.1-0.6,3.1-0.6H13c0.3,0,1.9,0,2.9,1.1c0.2,0.3,0.6,0.9,0.2,1.9c-0.3,0.8-1.1,1.8-1.9,2.4c0.3,0.2,0.4,0.5,0.5,0.7
			c0.2,0.4,0.7,1.4,0.8,1.6c0.7,1.3,1.6,2.4,1.9,2.4c0.9-0.3,1.9-2.6,2.6-4.6c1-2.6,1.7-6.5,1.9-7.6C21.9,5,21.7,5.2,21.6,5.3z"/>
		<g>
			<g>
				<g>
					<path class="st1" d="M25,0.9c-0.5-0.4-1.1-0.5-1.6-0.3c-1.3,0.4-3.2,1.3-4.6,3c-0.4,0.4-0.4,1.1,0.1,1.5
						C19.3,5.5,20,5.5,20.4,5c0.9-1,2.1-1.7,3-2.1c-0.3,2-0.9,5.3-1.8,8.4c-1.7,5.9-3.3,6.7-3.7,6.8c-0.7,0.2-1.5-0.7-2-1.4
						c-1.5-2-1.9-3-1.9-3.1c-0.1-0.4-0.4-0.7-0.8-0.8c-0.6-0.2-1.2,0.2-1.3,0.8c0,0-0.6,2-2.4,3.9c-1,1-1.5,0.8-1.7,0.7
						c-0.6-0.2-2.1-1.3-3.7-7C3.2,8.2,2.6,4.9,2.4,3c0.9,0.4,2.1,1,3,2.1c0.4,0.4,1.1,0.5,1.5,0.1S7.4,4.1,7,3.7
						C5.5,2,3.7,1.2,2.4,0.7C1.9,0.5,1.3,0.6,0.8,1S0.1,1.9,0.2,2.5C0.4,4.3,1,8.3,2.1,11.9c1.4,5,3.1,7.8,5.1,8.5
						c0.3,0.1,0.6,0.2,1,0.2c0.8,0,1.8-0.3,2.9-1.4c0.9-0.9,1.5-1.8,2-2.6c0.3,0.5,0.7,1,1.2,1.7c1.1,1.5,2.3,2.3,3.6,2.3
						c0.3,0,0.5,0,0.8-0.1c2-0.5,3.8-3.3,5.2-8.3c1.1-3.9,1.8-7.9,2-9.5C25.7,1.8,25.4,1.3,25,0.9z"/>
				</g>
				<g>
					<path class="st1" d="M12.8,12.3c-0.3,0-0.7-0.2-0.9-0.4l-1.5-2.1c-0.2-0.3-0.3-0.8-0.1-1.1c0.2-0.4,0.6-0.6,1-0.6h2.8
						c0.4,0,0.7,0.2,0.9,0.5c0.2,0.3,0.2,0.7,0,1.1l-1.3,2.1C13.6,12.1,13.2,12.3,12.8,12.3L12.8,12.3z"/>
				</g>
			</g>
		</g>
		<path class="st1" d="M17.6,21.3c-0.5,0-1-0.1-1.5-0.3c-1.2-0.5-2.4-1.9-3.1-2.8c-0.3,0.4-0.7,0.9-1.4,1.5c-1.5,1.4-3.1,1.8-4,1.6
			H7.5c-0.8-0.1-2.6-0.3-4.6-3.8C1.5,15,0.5,11.2,0.1,9.2c-0.6,3.8,0.8,8.4,3.6,11.2c3.9,3.9,9.4,3.4,14.5,0.9
			C18.1,21.3,17.9,21.3,17.6,21.3z"/>
		<path class="st1" d="M22.1,18.4c-0.3,0.4-0.6,0.8-0.9,1.2c2.7-1.8,3.8-5,3.7-8.2C24,14.6,23.2,16.5,22.1,18.4z"/>
	</g>
</g>
</svg>
